<?xml version="1.0" encoding="utf-8"?>
<!-- Generator: Adobe Illustrator 25.4.1, SVG Export Plug-In . SVG Version: 6.00 Build 0)  -->
<svg version="1.1" id="Layer_1" xmlns="http://www.w3.org/2000/svg" xmlns:xlink="http://www.w3.org/1999/xlink" x="0px" y="0px"
	 viewBox="0 0 370 370" style="enable-background:new 0 0 370 370;" xml:space="preserve">
<style type="text/css">
	.st0{fill:#029CFE;}
	.st1{fill:#FE03FE;}
	.st2{fill:#0403FE;}
	.st3{fill:#E5E5E5;}
	.st4{fill:#0AF40A;}
	.st5{fill:#FEFEFE;}
</style>
<path class="st0" d="M242.7,154.6c1.62-2.09,1.83-4.73,2.71-7.1c1.8-4.87,4.63-9,8.45-12.38c6.39-5.66,14.05-7.92,22.53-7.91
	c24.16,0.03,48.33-0.01,72.49-0.02c2.34,0,2.55,0.2,2.55,2.53c0,4.58,0,9.17-0.01,13.75c-0.01,2.68-0.31,2.98-2.98,2.98
	c-15.48-0.01-30.95-0.02-46.43-0.04c-9.22-0.01-18.45-0.13-27.67-0.05c-9.91,0.08-15.91,10.64-10.93,19.2
	c2.18,3.75,5.59,5.74,9.94,6.03c5.41,0.35,10.83-0.09,16.24,0.04c0.65,0.02,1.31,0.04,1.96,0.02c1.69-0.06,2.5,0.66,2.49,2.42
	c-0.02,5.06,0.01,10.12,0.06,15.18c0.01,1.51-0.75,1.92-2.13,1.91c-5.77-0.05-11.55-0.11-17.32-0.02
	c-7.22,0.11-12.1,5.23-12.42,12.28c-0.36,8.05,6.75,13.15,12.24,13.16c15,0.03,30,0.06,45,0.05c9.88-0.01,19.76-0.05,29.64-0.17
	c1.73-0.02,2.35,0.63,2.34,2.27c-0.04,4.76-0.01,9.52-0.05,14.28c-0.02,2.1-0.43,2.47-2.76,2.47c-12.08,0-24.16-0.03-36.24-0.05
	c-11.96-0.02-23.92-0.13-35.88-0.07c-9.86,0.05-18.34-3.18-25.06-10.44c-4.84-5.22-7.52-11.5-8.2-18.6
	c-0.8-8.28,1.65-15.59,6.67-22.12c0.36-0.47,0.7-0.96,1.11-1.4c0.95-1.02,0.84-1.95-0.07-2.96c-4.86-5.35-7.09-11.85-8.2-18.84
	c-0.04-0.23-0.13-0.45-0.2-0.67C242.6,158.43,242.65,156.52,242.7,154.6z"/>
<path class="st1" d="M242.7,154.6c-0.05,1.91-0.1,3.83-0.15,5.74c-1.22,4.8-2.91,9.42-5.95,13.4c-4.11,5.36-9.31,9.12-16.03,10.55
	c-0.41,0.09-0.81,0.19-1.21,0.31c-2.17,0.62-2.41,1.14-1.38,3.16c4.31,8.4,8.65,16.8,12.96,25.2c3.42,6.66,6.81,13.33,10.2,20.01
	c1.03,2.03,0.77,2.48-1.57,2.5c-5.41,0.05-10.83,0.03-16.24,0.04c-1.51,0-2.53-0.6-3.24-2.02c-5.67-11.25-11.44-22.45-17.1-33.7
	c-1.82-3.62-3.54-7.28-6.81-9.87c-3.59-2.85-7.55-4.59-12.28-4.49c-5.77,0.13-11.54,0.01-17.31,0c-2.13-0.01-2.42,0.27-2.42,2.51
	c-0.01,6.13-0.07,12.26,0.02,18.38c0.03,1.76-0.58,2.24-2.25,2.21c-4.94-0.08-9.87-0.02-14.81-0.02c-0.59,0-1.2,0.05-1.74-0.27
	c-0.05-0.65-0.14-1.3-0.14-1.95c-0.01-25.56-0.01-51.12,0-76.68c0-0.71,0.13-1.41,0.2-2.12c3.38-0.35,6.77-0.01,10.15-0.02
	c18.91-0.1,37.83-0.19,56.74-0.23c6.18-0.01,12.09,1.19,17.23,4.83c5.87,4.15,10.01,9.64,11.74,16.68
	C241.78,150.69,242.12,152.68,242.7,154.6z M190.37,166.57c7.91,0,15.82,0.25,23.72-0.07c6.97-0.28,10.56-5.34,9.48-12.17
	c-0.71-4.49-5.18-8.41-10.9-8.39c-15.4,0.06-30.79,0.03-46.19,0.01c-1.66,0-2.36,0.66-2.34,2.34c0.05,5.29,0.01,10.58,0.02,15.87
	c0.01,2.21,0.23,2.41,2.49,2.41C174.55,166.58,182.46,166.57,190.37,166.57z"/>
<path class="st2" d="M124.93,235.31c-5.71,0.02-11.41,0.03-17.12,0.09c-1.28,0.01-1.42-0.71-1.42-1.73
	c0.01-10.71-0.07-21.42,0.25-32.13c0.16-5.51,0.19-5.52-5.36-5.5c-20.94,0.04-41.89,0.08-62.83,0.13c-2.01,0-2.28,0.28-2.28,2.47
	c0.02,11.42,0.05,22.85,0.07,34.27c0,2.5,0,2.46-2.46,2.44c-4.88-0.03-9.76-0.1-14.63,0.04c-1.6,0.05-1.91-0.45-1.9-1.87
	c0.04-12.79,0.02-25.59,0.02-38.38c0-21.78,0-43.55-0.01-65.33c0-2.52,0.08-2.61,2.59-2.61c4.76,0,9.52,0.04,14.28-0.02
	c1.62-0.02,2.16,0.54,2.15,2.19c-0.08,15-0.08,29.99-0.1,44.99c0,3,0.07,3.07,3.13,3.07c21.12,0,42.25,0,63.37,0
	c0.54,0,1.07,0.01,1.61-0.01c2.03-0.07,2.4-0.43,2.37-2.44c-0.07-5.89-0.18-11.78-0.25-17.66c-0.03-2.39,0.17-2.59,2.5-2.55
	c5.41,0.09,10.82-0.14,16.22,0.23c0.38,0.75,0.54,1.53,0.54,2.39c-0.02,25.21-0.02,50.42,0,75.63
	C125.67,233.89,125.55,234.67,124.93,235.31z"/>
<path class="st0" d="M124.93,235.31c0.62-0.65,0.74-1.42,0.74-2.3c-0.02-25.21-0.02-50.42,0-75.63c0-0.86-0.16-1.64-0.54-2.39
	c0.72-0.6,0.8-1.39,0.76-2.26c-0.06-1.42-0.09-2.85-0.1-4.28c-0.02-2.26-0.23-2.45-2.43-2.42c-4.87,0.07-9.75,0.12-14.62,0.16
	c-2.21,0.02-2.37-0.16-2.38-2.3c-0.02-4.82,0.01-9.63-0.07-14.45c-0.03-1.68,0.55-2.33,2.26-2.32c11.59,0.06,23.19,0.04,34.78,0.08
	c0.7,0,1.4,0.19,2.1,0.29c-0.07,0.71-0.2,1.41-0.2,2.12c-0.01,25.56-0.01,51.12,0,76.68c0,0.65,0.09,1.3,0.14,1.95
	c-0.41,2.84-0.66,5.69-0.04,8.54c-0.32,0.44-0.5,0.9-0.5,1.47c0.04,5.73,0.06,11.45,0.08,17.18
	C138.26,235.62,131.59,235.87,124.93,235.31z"/>
<path class="st3" d="M248.09,237.69c1.17,0.73,2.2,1.41,3.28,2.02c4.63,2.65,9.6,3.69,14.96,3.8c29.86,0.61,59.73,0.17,89.6,0.29
	c3.39,0.01,3.62-0.23,3.62-3.65c0-6.59,0.61-13.18,0.33-19.78c-0.11-2.55-0.47-5.08-0.34-7.64c0.09-1.81,0.78-2.23,2.35-1.29
	c3.07,1.84,3.77,5.02,4,8.12c0.32,4.31,0.84,8.66,0.39,12.98c-0.38,3.63-0.04,7.31-1.26,10.89c-1.18,3.48-4.94,6.15-8.5,6.5
	c-9.19,0.91-18.4,0.92-27.59,0.61c-17.31-0.58-34.61,0.02-51.91-0.35c-4.94-0.11-9.89-0.56-14.79-1.54
	c-3.63-0.73-7.3-1.03-11.03,0.3c-2.69,0.96-5.61,1.41-8.55,1.31c-3.56-0.12-7.12,0.75-10.66,0.31c-3.88-0.49-7.79-0.11-11.67-0.9
	c-3.53-0.72-5.86-2.82-7.94-5.51c-2.08-2.69-3.54-5.77-4.98-8.78c-2.56-5.35-5.44-10.52-8.05-15.83c-1.89-3.83-3.65-7.74-6.12-11.27
	c-1.52-2.17-3.31-4.02-5.58-5.37c-0.76-0.45-1.6-0.81-2.44-1.06c-3.47-0.99-5.78,0.79-6.04,4.4c-0.75,10.28-0.09,20.57-0.37,30.84
	c-0.07,2.65-0.35,5.28-1.53,7.77c-1.41,2.96-3.81,4.46-6.88,5c-5.35,0.94-10.76,0.74-16.15,0.74c-8.81,0-17.62,0.03-26.43-0.01
	c-5.46-0.02-10.92-0.37-16.38-0.44c-2.28-0.03-4.65-0.2-6.91-1.2c-1.95-0.86-3.07-2.31-4.22-3.87c-0.6-0.82,0.03-0.77,0.6-0.91
	c2.47-0.62,4.92-0.65,7.48-0.42c3.25,0.3,6.54-0.02,9.81,0.09c11.35,0.41,22.71,0.46,34.06,0.26c6.06-0.11,12.11-0.3,18.17-0.27
	c1.78,0.01,1.99-1.02,1.99-2.44c-0.02-11.67-0.03-23.33,0.02-35c0.02-3.77,0.23-7.54,0.31-11.31c0.02-0.89,0.32-1.2,1.24-1.29
	c6.54-0.64,11.8,1.71,16.04,6.63c2.44,2.83,4.05,6.16,5.73,9.44c5.36,10.48,10.66,21,15.95,31.52c0.84,1.67,1.87,2.53,3.96,2.5
	c10.68-0.13,21.37-0.07,32.05-0.08c2.25,0,2.65-0.62,1.7-2.65c-0.48-1.02-0.95-2.03-1.42-3.05
	C247.97,238.06,248.01,238,248.09,237.69z"/>
<path class="st3" d="M343.63,160.66c-5.16-0.51-10.85,0.39-16.55,1.04c-0.47,0.05-1,0.12-1.36,0.38c-1.84,1.34-3.95,1.02-6,1.03
	c-5.65,0.01-11.3,0-16.95,0c-7.35,0-14.69-0.03-22.04,0.02c-2.9,0.02-5.03-1.52-7.11-3.24c-0.71-0.59-0.63-1.24,0.04-1.8
	c2.12-1.77,4.33-3.22,7.3-3.22c22.37,0.04,44.73,0.07,67.1-0.04c3.19-0.02,6.39-0.3,9.59-0.28c1.25,0.01,1.87-0.57,1.87-1.83
	c0.01-7.78,0.66-15.56,0.28-23.33c-0.1-2.01-0.31-3.99,0.07-5.98c0.08-0.44-0.16-1.01,0.42-1.25c0.59-0.25,0.99,0.12,1.42,0.47
	c2.47,1.98,3.26,4.75,3.5,7.7c0.38,4.79,0.65,9.61,0.32,14.4c-0.21,3.04,0,6.15-1.04,9.13c-1.35,3.87-4.29,5.91-8.88,6.45
	C351.83,160.75,348.04,160.47,343.63,160.66z"/>
<path class="st3" d="M71.47,204.54c8.15,0,16.3,0.04,24.45-0.04c1.74-0.02,2.26,0.55,2.24,2.25c-0.02,1.7-0.42,3.4-0.08,5.11
	c0.08,0.42-0.03,0.86-0.47,1.07c-0.4,0.2-0.67-0.1-0.92-0.35c-1.42-1.46-3.33-1.56-5.12-1.57c-10.89-0.08-21.78-0.11-32.66,0.02
	c-2.52,0.03-5.3,0.1-6.95,2.71c-0.75,1.19-1,2.52-1,3.9c0,3.45-0.1,6.91,0.03,10.35c0.15,4.22-0.03,8.47-0.5,12.61
	c-0.64,5.56-3.25,8.65-9.57,9.31c-6.05,0.63-12.11,0.26-18.16,0.29c-2.05,0.01-4.12-0.36-6.14-0.78c-2.33-0.49-3.91-2.16-5.19-4.05
	c-0.91-1.34,0.29-1.51,1.17-1.53c1.99-0.05,3.96-0.23,5.98-0.13c5.4,0.28,10.83,0.24,16.24,0.04c2.78-0.11,5.52-0.44,8.31-0.05
	c1.17,0.16,1.4-0.84,1.4-1.82c0-2.86,0.01-5.71,0.01-8.57c0-8.75,0-17.49,0-26.24c0-2.45,0.08-2.54,2.48-2.54
	C55.17,204.53,63.32,204.54,71.47,204.54z"/>
<path class="st3" d="M329.53,182.08c-0.17-3.65,0.28-8.52-0.18-13.39c-0.07-0.8,0.42-1.59,0.7-2.31c0.29-0.75,1.05-0.04,1.42,0.31
	c1.78,1.66,3.08,3.67,3.39,6.1c0.68,5.36,1.08,10.76,0.68,16.14c-0.25,3.33,0.02,6.77-1.22,9.99c-1.3,3.38-3.66,5.47-7.22,6.42
	c-3.02,0.81-6.06,0.99-9.14,0.98c-6.78-0.01-13.57-0.01-20.35,0c-1.15,0-2.44-0.29-2.85,1.38c-0.14,0.57-0.81,0.38-1.26,0.38
	c-4.22,0.02-8.45,0.12-12.67-0.02c-2.89-0.1-4.96-2.05-7.04-3.8c-0.52-0.44-0.12-0.86,0.24-1.2c2.11-2.01,4.43-3.57,7.52-3.55
	c3.39,0.02,6.79,0.09,10.17-0.01c11.74-0.36,23.48-0.34,35.22-0.35c2.11,0,2.59-0.5,2.59-2.66
	C329.53,192.1,329.53,187.7,329.53,182.08z"/>
<path class="st4" d="M216.34,255.68c-1.36-0.14-2.42-0.34-3.48-0.33c-1.07,0.01-1.42-0.24-1.26-1.42c0.37-2.81-0.25-2.68,3.04-2.36
	c3.7,0.36,7.34,0.89,10.89,2.02c2.82,0.9,5.36,2.21,7.3,4.53c1.93,2.32,1.88,4.98-0.2,7.2c-1.33,1.41-2.96,2.36-4.74,3.08
	c-0.47,0.19-1.23,0.17-1.31,0.68c-0.11,0.64,0.64,0.93,1.1,1.27c2.62,1.94,5.26,3.86,7.91,5.8c-0.22,0.14-0.44,0.33-0.69,0.43
	c-2.52,0.99-5.04,1.96-7.57,2.93c-1.8-1.64-3.6-3.28-5.39-4.92c-0.47-0.43-0.94-0.85-1.57-1.41c-0.42,1.55-0.65,2.96-0.4,4.34
	c0.23,1.28-0.33,1.59-1.39,1.61c-0.06,0-0.12,0.02-0.18,0.01c-1.54-0.05-3.38,1.05-4.49,0.19c-1.04-0.81-0.46-2.8-0.59-4.26
	c-0.51-5.68-0.9-11.37-1.4-17.05c-0.09-0.99,0.17-1.33,1.13-1.49C214.08,256.35,215.17,256.33,216.34,255.68z M219.68,263.49
	c0.03,0.57-0.02,1.18,0.12,1.75c0.13,0.49,0.37,0.96,1.14,0.73c2.15-0.64,4.67-2.92,4.61-4.48c-0.09-2.4-2.03-3.28-3.8-4.29
	c-1.04-0.59-1.39-0.07-1.5,0.8C220.03,259.82,219.88,261.64,219.68,263.49z"/>
<path class="st3" d="M97.36,131.13c0.48,0.35,0.38,0.73,0.37,1.07c-0.3,9.5,0.79,19,0.24,28.51c-0.12,2.07,0,4.16,0.15,6.23
	c0.1,1.48-0.38,1.92-1.88,1.91c-10.47-0.06-20.95-0.04-31.42-0.03c-6.13,0-12.26-0.02-18.39,0.05c-1.45,0.02-1.94-0.36-1.93-1.88
	c0.06-15.35,0.04-30.71,0.06-46.06c0-0.55-0.3-1.28,0.38-1.61c0.68-0.34,1.24,0.16,1.8,0.49c3.59,2.18,4.77,5.66,5.33,9.56
	c0.3,2.07,0.32,4.13,0.33,6.21c0,8.51,0.02,17.02-0.02,25.53c-0.01,1.27,0.21,2.48,0.44,3.7c0.31,1.67,2.57,3.3,4.64,3.3
	c11.6,0.03,23.21,0.03,34.81,0c2.14,0,4.06-1.6,4.51-3.73c0.74-3.5,0.94-7.03,0.34-10.58c-0.08-0.46-0.06-0.95-0.06-1.42
	c0-6.49-0.01-12.97,0.01-19.46C97.06,132.35,96.85,131.73,97.36,131.13z"/>
<path class="st4" d="M210.14,278.14c-2.52,0.45-5.13,0.92-7.74,1.39c-0.52,0.1-0.77-0.13-0.88-0.61c-0.04-0.17-0.11-0.34-0.16-0.51
	c-0.38-1.36-0.21-3.34-1.25-3.95c-1.44-0.84-3.43-0.72-5.16-1.09c-0.8-0.17-1.06,0.22-1.27,0.85c-0.48,1.46-1.03,2.9-1.47,4.38
	c-0.21,0.71-0.42,0.97-1.21,0.66c-1.37-0.55-2.78-1.04-4.21-1.4c-1.05-0.26-0.95-0.76-0.68-1.55c2.71-7.77,5.41-15.55,8.09-23.34
	c0.26-0.76,0.57-1.08,1.51-0.99c5,0.48,4.98,0.44,6.69,5.13C204.94,264.06,207.51,271,210.14,278.14z M197.5,263.24
	c-0.54,1.39-0.92,2.31-1.27,3.24c-1.26,3.44-1.26,3.44,2.41,3.44c0.16,0,0.32-0.09,0.54-0.15
	C198.66,267.73,198.14,265.72,197.5,263.24z"/>
<path class="st4" d="M311.5,190.91c-2.5,0-4.99-0.04-7.49,0.02c-1.28,0.03-1.83-0.45-1.83-1.76c0.03-5.23,0.03-10.46,0-15.69
	c0-1.1,0.41-1.66,1.55-1.66c5.35,0.01,10.7,0.01,16.04-0.01c1.08,0,1.49,0.52,1.49,1.53c0,5.29-0.01,10.58,0,15.87
	c0,1.19-0.57,1.71-1.76,1.7c-2.67-0.03-5.35-0.01-8.02-0.01C311.5,190.9,311.5,190.9,311.5,190.91z"/>
<path class="st4" d="M144.92,235.43c-0.02-5.73-0.04-11.45-0.08-17.18c0-0.57,0.17-1.03,0.5-1.47c5.7-0.02,11.4-0.04,17.1-0.08
	c1.16-0.01,1.73,0.35,1.72,1.64c-0.05,5.22-0.02,10.45-0.02,15.67c0,0.87-0.2,1.56-1.25,1.55
	C156.9,235.46,150.91,235.84,144.92,235.43z"/>
<path class="st4" d="M167.71,277.08c0.19,0.54,0.51,1.06-0.47,1.22c-2.34,0.37-4.67,0.8-7,1.23c-0.61,0.11-0.89-0.16-1-0.71
	c-0.05-0.23-0.06-0.48-0.14-0.7c-0.49-1.26-0.18-3.19-1.29-3.73c-1.58-0.76-3.56-0.69-5.37-1.03c-0.83-0.15-0.86,0.53-1.02,0.95
	c-0.53,1.38-1.05,2.78-1.41,4.21c-0.22,0.91-0.57,0.98-1.34,0.69c-1.39-0.52-2.79-1.01-4.22-1.4c-0.79-0.22-0.89-0.55-0.65-1.26
	c2.75-7.89,5.5-15.79,8.21-23.7c0.25-0.72,0.64-0.84,1.32-0.84c1.49-0.01,2.9,0.69,4.4,0.39c0.44,1.21,0.88,2.43,1.33,3.64
	c2.27,6.22,4.53,12.44,6.85,18.64C166.26,275.62,166.33,276.88,167.71,277.08z M156.97,269.73c-0.53-1.98-1.07-3.99-1.72-6.43
	c-0.53,1.36-0.88,2.24-1.21,3.12c-1.31,3.52-1.15,3.71,2.69,3.46C156.79,269.87,156.83,269.82,156.97,269.73z"/>
<path class="st4" d="M142.39,256.13c-1.31,1.17-3.03,1.58-4.53,2.4c-0.69,0.38-0.74-0.21-1.01-0.55c-1.11-1.4-2.78-1.57-4.24-0.47
	c-1.38,1.04-1.69,3.11-0.65,4.42c0.56,0.71,1.29,1.21,2.09,1.63c1.68,0.89,3.42,1.69,4.99,2.74c3.61,2.42,4.08,7.07,1.1,10
	c-3.24,3.2-11.53,4.2-15.45,1.87c-0.31-0.18-0.61-0.37-0.89-0.58c-1.09-0.82-1.32-1.52,0.17-2.2c0.8-0.36,1.52-0.93,2.28-1.39
	c1.08-0.66,1.99-1.75,3.35-0.09c0.8,0.98,3.15,0.28,3.97-0.85c0.99-1.35,0.24-2.38-0.75-3.23c-1.03-0.89-2.17-1.66-3.28-2.45
	c-1.55-1.11-3.11-2.2-4.32-3.7c-1.89-2.35-1.8-5.59,0.24-7.79c2.11-2.28,4.76-3.38,7.84-3.47c0.89-0.03,1.78-0.02,2.68-0.02
	C138.07,253.71,139.85,255.57,142.39,256.13z"/>
<path class="st4" d="M174.08,255.57c-1.3-0.09-2.6-0.23-3.89-0.26c-0.82-0.02-0.94-0.31-0.86-1.09c0.35-3.2,0.3-3,3.49-2.7
	c4.01,0.38,8.06,0.39,12.09,0.56c0.42,0.02,0.83,0.02,1.25,0.04c2.41,0.11,3.2,1.41,2.32,3.69c-0.27,0.7-0.78,0.4-1.19,0.38
	c-2.55-0.12-5.11-0.23-7.65-0.44c-0.98-0.08-1.47,0.17-1.49,1.18c-0.06,2.32-0.13,4.63-0.2,6.95c-0.03,0.92,0.43,1.09,1.24,0.93
	c0.7-0.14,1.41-0.19,2.12-0.24c2.36-0.15,2.29-0.13,2.43,2.26c0.08,1.3-0.44,1.61-1.6,1.65c-4.87,0.19-4.22-0.35-4.38,4.35
	c-0.06,1.66-0.09,3.33,0.01,4.99c0.05,0.84-0.19,1.12-1,1.27c-5.27,0.99-5.33,0.95-5.74-4.32c-0.43-5.57-0.84-11.14-1.36-16.7
	c-0.11-1.14,0.25-1.45,1.26-1.56c1.04-0.12,2.07-0.39,3.11-0.59C174.04,255.8,174.06,255.68,174.08,255.57z"/>
<path class="st4" d="M245.27,266.31c0,4.1-0.02,8.2,0.02,12.3c0.01,0.85-0.31,1.04-1.04,0.92c-0.12-0.02-0.24-0.01-0.35-0.03
	c-1.56-0.34-3.54,0.21-4.65-0.79c-1.07-0.96-0.49-2.91-0.63-4.42c-0.56-6.33-0.97-12.67-1.5-19.01c-0.07-0.85,0.15-1.17,0.96-1.29
	c2.11-0.32,4.21-0.66,6.3-1.05c0.96-0.18,1.2,0.12,1.19,1.08c-0.05,4.1-0.02,8.2-0.02,12.3
	C245.46,266.31,245.37,266.31,245.27,266.31z"/>
<path class="st3" d="M167.71,277.08c-1.39-0.19-1.45-1.45-1.8-2.39c-2.32-6.2-4.57-12.42-6.85-18.64c-0.44-1.21-0.89-2.43-1.33-3.64
	c0.76-0.14,1.2,0.14,1.48,0.9c2.81,7.75,5.64,15.49,8.46,23.24C167.74,276.71,167.7,276.9,167.71,277.08z"/>
<path class="st3" d="M142.39,256.13c-2.54-0.56-4.32-2.42-6.42-3.73C138.44,253.08,141.07,253.47,142.39,256.13z"/>
<path class="st3" d="M234.72,195.49c-0.9-0.9-1.39-1.88-1.83-2.89c-0.23-0.52-0.26-1.1,0.29-1.43c0.54-0.32,1.15-0.64,1.75-0.71
	c0.4-0.05,0.34,0.55,0.31,0.87C235.1,192.66,234.91,193.98,234.72,195.49z"/>
<path class="st5" d="M190.37,166.57c-7.91,0-15.81,0-23.72,0c-2.26,0-2.49-0.2-2.49-2.41c-0.01-5.29,0.03-10.58-0.02-15.87
	c-0.02-1.68,0.68-2.34,2.34-2.34c15.4,0.03,30.8,0.06,46.19-0.01c5.72-0.02,10.19,3.9,10.9,8.39c1.08,6.83-2.51,11.88-9.48,12.17
	C206.19,166.82,198.28,166.57,190.37,166.57z"/>
<path class="st5" d="M219.68,263.49c0.19-1.85,0.35-3.67,0.58-5.49c0.11-0.88,0.46-1.4,1.5-0.8c1.77,1.01,3.7,1.88,3.8,4.29
	c0.06,1.56-2.46,3.85-4.61,4.48c-0.77,0.23-1.01-0.24-1.14-0.73C219.66,264.67,219.71,264.06,219.68,263.49z"/>
<path class="st5" d="M197.5,263.24c0.64,2.48,1.16,4.49,1.68,6.53c-0.22,0.07-0.38,0.15-0.54,0.15c-3.67,0-3.67-0.01-2.41-3.44
	C196.58,265.55,196.96,264.63,197.5,263.24z"/>
<path class="st5" d="M156.97,269.73c-0.13,0.08-0.18,0.14-0.24,0.14c-3.85,0.25-4,0.06-2.69-3.46c0.33-0.88,0.68-1.75,1.21-3.12
	C155.9,265.74,156.44,267.75,156.97,269.73z"/>
</svg>
