<?xml version="1.0" encoding="UTF-8"?>
<!DOCTYPE svg PUBLIC "-//W3C//DTD SVG 1.1//EN" "http://www.w3.org/Graphics/SVG/1.1/DTD/svg11.dtd">
<svg xmlns="http://www.w3.org/2000/svg" version="1.1" width="1200px" height="1200px" style="shape-rendering:geometricPrecision; text-rendering:geometricPrecision; image-rendering:optimizeQuality; fill-rule:evenodd; clip-rule:evenodd" xmlns:xlink="http://www.w3.org/1999/xlink">
<g><path style="opacity:0.046" fill="#010101" d="M 772.5,810.5 C 772.826,806.116 772.492,801.783 771.5,797.5C 770.583,798.127 769.583,798.461 768.5,798.5C 761.868,799.716 755.201,800.716 748.5,801.5C 747.596,802.209 747.263,803.209 747.5,804.5C 747.5,806.5 747.5,808.5 747.5,810.5C 743.5,810.5 739.5,810.5 735.5,810.5C 732.47,807.986 729.137,805.986 725.5,804.5C 718.058,800.464 710.058,797.797 701.5,796.5C 693.916,795.118 686.25,794.451 678.5,794.5C 676.824,795.183 676.157,796.517 676.5,798.5C 675.5,798.5 674.5,798.5 673.5,798.5C 673.5,797.5 673.5,796.5 673.5,795.5C 672.5,795.5 671.5,795.5 670.5,795.5C 670.5,794.5 670.5,793.5 670.5,792.5C 669.5,792.5 668.5,792.5 667.5,792.5C 667.5,790.5 667.5,788.5 667.5,786.5C 666.5,786.5 665.5,786.5 664.5,786.5C 664.5,785.167 664.5,783.833 664.5,782.5C 663.5,782.5 662.5,782.5 661.5,782.5C 661.5,780.5 661.5,778.5 661.5,776.5C 660.5,776.5 659.5,776.5 658.5,776.5C 658.5,774.5 658.5,772.5 658.5,770.5C 657.5,770.5 656.5,770.5 655.5,770.5C 655.5,768.5 655.5,766.5 655.5,764.5C 654.5,764.5 653.5,764.5 652.5,764.5C 652.5,762.5 652.5,760.5 652.5,758.5C 651.5,758.5 650.5,758.5 649.5,758.5C 649.5,756.5 649.5,754.5 649.5,752.5C 648.5,752.5 647.5,752.5 646.5,752.5C 646.5,750.5 646.5,748.5 646.5,746.5C 645.5,746.5 644.5,746.5 643.5,746.5C 643.5,744.5 643.5,742.5 643.5,740.5C 642.5,740.5 641.5,740.5 640.5,740.5C 640.5,738.5 640.5,736.5 640.5,734.5C 639.5,734.5 638.5,734.5 637.5,734.5C 637.5,732.5 637.5,730.5 637.5,728.5C 636.5,728.5 635.5,728.5 634.5,728.5C 634.5,726.5 634.5,724.5 634.5,722.5C 633.5,722.5 632.5,722.5 631.5,722.5C 631.5,720.5 631.5,718.5 631.5,716.5C 630.5,716.5 629.5,716.5 628.5,716.5C 628.5,714.5 628.5,712.5 628.5,710.5C 627.5,710.5 626.5,710.5 625.5,710.5C 625.5,708.5 625.5,706.5 625.5,704.5C 624.5,704.5 623.5,704.5 622.5,704.5C 622.5,702.5 622.5,700.5 622.5,698.5C 621.5,698.5 620.5,698.5 619.5,698.5C 619.5,696.5 619.5,694.5 619.5,692.5C 618.5,692.5 617.5,692.5 616.5,692.5C 616.5,691.5 616.5,690.5 616.5,689.5C 615.167,689.5 613.833,689.5 612.5,689.5C 612.5,687.5 612.5,685.5 612.5,683.5C 611.5,683.5 610.5,683.5 609.5,683.5C 609.5,682.5 609.5,681.5 609.5,680.5C 607.5,680.5 605.5,680.5 603.5,680.5C 603.5,706.5 603.5,732.5 603.5,758.5C 602.5,758.5 601.5,758.5 600.5,758.5C 600.5,766.5 600.5,774.5 600.5,782.5C 599.5,782.5 598.5,782.5 597.5,782.5C 597.5,784.833 597.5,787.167 597.5,789.5C 596.5,789.5 595.5,789.5 594.5,789.5C 594.5,790.5 594.5,791.5 594.5,792.5C 593.5,792.5 592.5,792.5 591.5,792.5C 591.5,793.5 591.5,794.5 591.5,795.5C 580.337,794.485 569.337,794.485 558.5,795.5C 558.5,795.833 558.5,796.167 558.5,796.5C 557.676,799.764 557.342,803.098 557.5,806.5C 559.167,806.5 560.833,806.5 562.5,806.5C 565.713,806.19 568.713,806.523 571.5,807.5C 569.5,807.5 567.5,807.5 565.5,807.5C 564.833,807.5 564.5,807.833 564.5,808.5C 563.167,808.5 561.833,808.5 560.5,808.5C 559.5,808.833 558.833,809.5 558.5,810.5C 550.167,810.5 541.833,810.5 533.5,810.5C 531.879,806.257 530.546,801.924 529.5,797.5C 528.5,797.5 527.5,797.5 526.5,797.5C 522.062,796.737 517.562,796.071 513,795.5C 511.93,795.528 511.097,795.861 510.5,796.5C 508.305,801.085 506.305,805.751 504.5,810.5C 496.5,810.5 488.5,810.5 480.5,810.5C 481.398,809.842 482.398,809.176 483.5,808.5C 483.376,807.893 483.043,807.56 482.5,807.5C 479.637,802.968 475.637,799.968 470.5,798.5C 459.07,795.253 448.403,796.919 438.5,803.5C 436.5,804.833 434.833,806.5 433.5,808.5C 432.833,809.167 432.167,809.833 431.5,810.5C 414.833,810.5 398.167,810.5 381.5,810.5C 381.5,809.5 381.5,808.5 381.5,807.5C 377.5,807.5 373.5,807.5 369.5,807.5C 369.5,806.5 369.5,805.5 369.5,804.5C 367.5,804.5 365.5,804.5 363.5,804.5C 363.5,803.5 363.5,802.5 363.5,801.5C 361.5,801.5 359.5,801.5 357.5,801.5C 357.5,800.5 357.5,799.5 357.5,798.5C 356.5,798.5 355.5,798.5 354.5,798.5C 354.5,797.5 354.5,796.5 354.5,795.5C 353.5,795.5 352.5,795.5 351.5,795.5C 351.5,793.5 351.5,791.5 351.5,789.5C 350.5,789.5 349.5,789.5 348.5,789.5C 348.5,787.167 348.5,784.833 348.5,782.5C 347.5,782.5 346.5,782.5 345.5,782.5C 345.5,781.5 345.5,780.5 345.5,779.5C 344.5,779.5 343.5,779.5 342.5,779.5C 342.667,753.498 342.5,727.498 342,701.5C 341.308,700.975 340.808,700.308 340.5,699.5C 308.6,698.172 276.767,698.172 245,699.5C 243.518,726.078 243.018,752.744 243.5,779.5C 242.5,779.5 241.5,779.5 240.5,779.5C 240.5,782.833 240.5,786.167 240.5,789.5C 239.5,789.5 238.5,789.5 237.5,789.5C 237.5,790.5 237.5,791.5 237.5,792.5C 236.5,792.5 235.5,792.5 234.5,792.5C 234.5,793.5 234.5,794.5 234.5,795.5C 233.5,795.5 232.5,795.5 231.5,795.5C 231.5,796.5 231.5,797.5 231.5,798.5C 230.5,798.5 229.5,798.5 228.5,798.5C 228.5,799.5 228.5,800.5 228.5,801.5C 227.5,801.5 226.5,801.5 225.5,801.5C 225.5,802.5 225.5,803.5 225.5,804.5C 222.5,804.5 219.5,804.5 216.5,804.5C 216.5,805.5 216.5,806.5 216.5,807.5C 212.5,807.5 208.5,807.5 204.5,807.5C 204.5,808.5 204.5,809.5 204.5,810.5C 181.5,810.5 158.5,810.5 135.5,810.5C 135.5,809.5 135.5,808.5 135.5,807.5C 130.167,807.5 124.833,807.5 119.5,807.5C 119.5,806.5 119.5,805.5 119.5,804.5C 117.5,804.5 115.5,804.5 113.5,804.5C 113.5,803.5 113.5,802.5 113.5,801.5C 111.5,801.5 109.5,801.5 107.5,801.5C 107.5,800.5 107.5,799.5 107.5,798.5C 106.5,798.5 105.5,798.5 104.5,798.5C 104.5,797.5 104.5,796.5 104.5,795.5C 103.5,795.5 102.5,795.5 101.5,795.5C 101.5,793.5 101.5,791.5 101.5,789.5C 100.5,789.5 99.5,789.5 98.5,789.5C 98.5,787.167 98.5,784.833 98.5,782.5C 97.5,782.5 96.5,782.5 95.5,782.5C 95.5,781.5 95.5,780.5 95.5,779.5C 94.5,779.5 93.5,779.5 92.5,779.5C 92.5,665.5 92.5,551.5 92.5,437.5C 93.5,437.5 94.5,437.5 95.5,437.5C 95.5,436.167 95.5,434.833 95.5,433.5C 96.5,433.5 97.5,433.5 98.5,433.5C 98.5,431.5 98.5,429.5 98.5,427.5C 99.5,427.5 100.5,427.5 101.5,427.5C 101.5,425.5 101.5,423.5 101.5,421.5C 102.5,421.5 103.5,421.5 104.5,421.5C 104.5,420.5 104.5,419.5 104.5,418.5C 105.5,418.5 106.5,418.5 107.5,418.5C 107.5,417.5 107.5,416.5 107.5,415.5C 109.5,415.5 111.5,415.5 113.5,415.5C 113.5,414.5 113.5,413.5 113.5,412.5C 115.5,412.5 117.5,412.5 119.5,412.5C 119.5,411.5 119.5,410.5 119.5,409.5C 123.833,409.5 128.167,409.5 132.5,409.5C 132.5,408.5 132.5,407.5 132.5,406.5C 156.5,406.5 180.5,406.5 204.5,406.5C 204.5,407.5 204.5,408.5 204.5,409.5C 209.5,409.5 214.5,409.5 219.5,409.5C 219.5,410.5 219.5,411.5 219.5,412.5C 221.5,412.5 223.5,412.5 225.5,412.5C 225.5,413.5 225.5,414.5 225.5,415.5C 226.5,415.5 227.5,415.5 228.5,415.5C 228.5,416.5 228.5,417.5 228.5,418.5C 229.5,418.5 230.5,418.5 231.5,418.5C 231.5,419.5 231.5,420.5 231.5,421.5C 232.5,421.5 233.5,421.5 234.5,421.5C 234.5,422.5 234.5,423.5 234.5,424.5C 235.5,424.5 236.5,424.5 237.5,424.5C 237.5,425.5 237.5,426.5 237.5,427.5C 238.5,427.5 239.5,427.5 240.5,427.5C 240.5,430.833 240.5,434.167 240.5,437.5C 241.5,437.5 242.5,437.5 243.5,437.5C 243.333,473.835 243.5,510.168 244,546.5C 244.5,547 245,547.5 245.5,548C 261.333,548.167 277.167,548.333 293,548.5C 309.318,548.485 325.485,547.819 341.5,546.5C 342.5,510.173 342.833,473.839 342.5,437.5C 343.5,437.5 344.5,437.5 345.5,437.5C 345.5,436.167 345.5,434.833 345.5,433.5C 346.5,433.5 347.5,433.5 348.5,433.5C 348.5,430.5 348.5,427.5 348.5,424.5C 349.5,424.5 350.5,424.5 351.5,424.5C 351.5,423.5 351.5,422.5 351.5,421.5C 352.5,421.5 353.5,421.5 354.5,421.5C 354.5,420.5 354.5,419.5 354.5,418.5C 355.5,418.5 356.5,418.5 357.5,418.5C 357.5,417.5 357.5,416.5 357.5,415.5C 359.5,415.5 361.5,415.5 363.5,415.5C 363.5,414.5 363.5,413.5 363.5,412.5C 365.5,412.5 367.5,412.5 369.5,412.5C 369.5,411.5 369.5,410.5 369.5,409.5C 373.5,409.5 377.5,409.5 381.5,409.5C 381.5,408.5 381.5,407.5 381.5,406.5C 491.833,406.5 602.167,406.5 712.5,406.5C 712.5,407.5 712.5,408.5 712.5,409.5C 720.5,409.5 728.5,409.5 736.5,409.5C 736.5,410.5 736.5,411.5 736.5,412.5C 740.5,412.5 744.5,412.5 748.5,412.5C 748.5,413.5 748.5,414.5 748.5,415.5C 750.5,415.5 752.5,415.5 754.5,415.5C 754.5,416.5 754.5,417.5 754.5,418.5C 756.5,418.5 758.5,418.5 760.5,418.5C 760.5,419.5 760.5,420.5 760.5,421.5C 762.5,421.5 764.5,421.5 766.5,421.5C 766.5,422.5 766.5,423.5 766.5,424.5C 772.5,424.5 778.5,424.5 784.5,424.5C 784.5,423.5 784.5,422.5 784.5,421.5C 786.5,421.5 788.5,421.5 790.5,421.5C 790.5,420.5 790.5,419.5 790.5,418.5C 793.5,418.5 796.5,418.5 799.5,418.5C 799.5,417.5 799.5,416.5 799.5,415.5C 801.5,415.5 803.5,415.5 805.5,415.5C 805.5,414.5 805.5,413.5 805.5,412.5C 809.5,412.5 813.5,412.5 817.5,412.5C 817.5,411.5 817.5,410.5 817.5,409.5C 825.5,409.5 833.5,409.5 841.5,409.5C 841.5,408.5 841.5,407.5 841.5,406.5C 922.5,406.5 1003.5,406.5 1084.5,406.5C 1084.5,407.5 1084.5,408.5 1084.5,409.5C 1089.5,409.5 1094.5,409.5 1099.5,409.5C 1099.5,410.5 1099.5,411.5 1099.5,412.5C 1101.83,412.5 1104.17,412.5 1106.5,412.5C 1106.5,413.5 1106.5,414.5 1106.5,415.5C 1108.5,415.5 1110.5,415.5 1112.5,415.5C 1112.5,416.5 1112.5,417.5 1112.5,418.5C 1113.5,418.5 1114.5,418.5 1115.5,418.5C 1115.5,419.5 1115.5,420.5 1115.5,421.5C 1116.5,421.5 1117.5,421.5 1118.5,421.5C 1118.5,423.5 1118.5,425.5 1118.5,427.5C 1119.5,427.5 1120.5,427.5 1121.5,427.5C 1121.5,430.833 1121.5,434.167 1121.5,437.5C 1123.5,437.5 1125.5,437.5 1127.5,437.5C 1127.5,468.5 1127.5,499.5 1127.5,530.5C 1126.5,530.5 1125.5,530.5 1124.5,530.5C 1124.5,531.5 1124.5,532.5 1124.5,533.5C 1123.5,533.5 1122.5,533.5 1121.5,533.5C 1121.5,535.5 1121.5,537.5 1121.5,539.5C 1120.5,539.5 1119.5,539.5 1118.5,539.5C 1118.5,541.5 1118.5,543.5 1118.5,545.5C 1117.5,545.5 1116.5,545.5 1115.5,545.5C 1115.5,546.5 1115.5,547.5 1115.5,548.5C 1114.5,548.5 1113.5,548.5 1112.5,548.5C 1112.5,549.5 1112.5,550.5 1112.5,551.5C 1111.5,551.5 1110.5,551.5 1109.5,551.5C 1109.5,552.5 1109.5,553.5 1109.5,554.5C 1107.5,554.5 1105.5,554.5 1103.5,554.5C 1103.5,555.5 1103.5,556.5 1103.5,557.5C 1099.17,557.5 1094.83,557.5 1090.5,557.5C 1090.5,558.5 1090.5,559.5 1090.5,560.5C 1074.5,560.5 1058.5,560.5 1042.5,560.5C 1042.5,592.5 1042.5,624.5 1042.5,656.5C 1054.5,656.5 1066.5,656.5 1078.5,656.5C 1078.5,657.5 1078.5,658.5 1078.5,659.5C 1085.5,659.5 1092.5,659.5 1099.5,659.5C 1099.5,660.5 1099.5,661.5 1099.5,662.5C 1101.83,662.5 1104.17,662.5 1106.5,662.5C 1106.5,663.5 1106.5,664.5 1106.5,665.5C 1107.5,665.5 1108.5,665.5 1109.5,665.5C 1109.5,666.5 1109.5,667.5 1109.5,668.5C 1111.5,668.5 1113.5,668.5 1115.5,668.5C 1115.5,669.5 1115.5,670.5 1115.5,671.5C 1116.5,671.5 1117.5,671.5 1118.5,671.5C 1118.5,673.5 1118.5,675.5 1118.5,677.5C 1119.5,677.5 1120.5,677.5 1121.5,677.5C 1121.5,680.5 1121.5,683.5 1121.5,686.5C 1123.5,686.5 1125.5,686.5 1127.5,686.5C 1127.5,717.5 1127.5,748.5 1127.5,779.5C 1125.5,779.5 1123.5,779.5 1121.5,779.5C 1121.5,782.833 1121.5,786.167 1121.5,789.5C 1120.5,789.5 1119.5,789.5 1118.5,789.5C 1118.5,791.5 1118.5,793.5 1118.5,795.5C 1117.5,795.5 1116.5,795.5 1115.5,795.5C 1115.5,796.5 1115.5,797.5 1115.5,798.5C 1113.5,798.5 1111.5,798.5 1109.5,798.5C 1109.5,799.5 1109.5,800.5 1109.5,801.5C 1108.5,801.5 1107.5,801.5 1106.5,801.5C 1106.5,802.5 1106.5,803.5 1106.5,804.5C 1104.17,804.5 1101.83,804.5 1099.5,804.5C 1099.5,805.5 1099.5,806.5 1099.5,807.5C 1095.5,807.5 1091.5,807.5 1087.5,807.5C 1087.5,808.5 1087.5,809.5 1087.5,810.5C 1005.5,810.5 923.5,810.5 841.5,810.5C 841.5,809.5 841.5,808.5 841.5,807.5C 833.5,807.5 825.5,807.5 817.5,807.5C 817.5,806.5 817.5,805.5 817.5,804.5C 810.5,804.5 803.5,804.5 796.5,804.5C 796.5,805.5 796.5,806.5 796.5,807.5C 791.5,807.5 786.5,807.5 781.5,807.5C 781.5,808.5 781.5,809.5 781.5,810.5C 778.5,810.5 775.5,810.5 772.5,810.5 Z"/></g>
<g><path style="opacity:0.998" fill="#fcfcfd" d="M 110.5,422.5 C 142.502,422.333 174.502,422.5 206.5,423C 207.416,423.374 208.25,423.874 209,424.5C 209.5,470.832 209.667,517.165 209.5,563.5C 258.833,563.5 308.167,563.5 357.5,563.5C 356.841,516.449 357.508,469.615 359.5,423C 475.834,423.455 592.168,423.455 708.5,423C 731.46,424.148 750.46,433.315 765.5,450.5C 781.991,433.936 801.991,424.769 825.5,423C 913.167,422.333 1000.83,422.333 1088.5,423C 1089.42,423.374 1090.25,423.874 1091,424.5C 1091.67,456.833 1091.67,489.167 1091,521.5C 1090.63,522.416 1090.13,523.25 1089.5,524C 1015.5,524.333 941.5,524.667 867.5,525C 859.838,526.155 853.838,529.822 849.5,536C 853.731,541.128 859.065,544.794 865.5,547C 912.167,547.333 958.833,547.667 1005.5,548C 1006,548.5 1006.5,549 1007,549.5C 1007.67,581.833 1007.67,614.167 1007,646.5C 1006.5,647 1006,647.5 1005.5,648C 961.25,649.323 916.917,649.99 872.5,650C 863.554,650.473 856.221,654.14 850.5,661C 855.51,667.014 861.843,671.014 869.5,673C 942.833,673.012 1016.17,673.012 1089.5,673C 1090,673.5 1090.5,674 1091,674.5C 1091.67,706.833 1091.67,739.167 1091,771.5C 1090.1,772.701 1088.93,773.535 1087.5,774C 998.159,774.91 908.826,774.576 819.5,773C 804.405,771.196 790.905,765.696 779,756.5C 780.693,761.054 782.527,765.721 784.5,770.5C 784.41,772.425 783.41,773.592 781.5,774C 748.167,774.667 714.833,774.667 681.5,774C 680.315,772.647 678.981,771.48 677.5,770.5C 660.273,737.046 643.273,703.379 626.5,669.5C 614.927,644.213 595.26,632.546 567.5,634.5C 567.667,680.501 567.5,726.501 567,772.5C 566.5,773 566,773.5 565.5,774C 496.802,774.464 428.135,774.464 359.5,774C 359,773.5 358.5,773 358,772.5C 357.5,736.502 357.333,700.502 357.5,664.5C 308.167,664.5 258.833,664.5 209.5,664.5C 209.981,700.895 209.481,737.228 208,773.5C 174.98,773.531 141.98,773.531 109,773.5C 108.833,715.167 108.667,656.833 108.5,598.5C 108.504,539.624 109.171,480.957 110.5,422.5 Z"/></g>
<g><path style="opacity:1" fill="#93c9fe" d="M 849.5,447.5 C 921.833,446.167 994.167,446.167 1066.5,447.5C 1066.74,448.791 1066.4,449.791 1065.5,450.5C 1065.67,449.508 1065.34,448.842 1064.5,448.5C 993.002,447.501 921.335,447.167 849.5,447.5 Z"/></g>
<g><path style="opacity:1" fill="#0a7dff" d="M 384.5,448.5 C 400.503,448.333 416.503,448.5 432.5,449C 416.655,450.484 400.655,450.984 384.5,450.5C 384.5,449.833 384.5,449.167 384.5,448.5 Z"/></g>
<g><path style="opacity:1" fill="#0301ff" d="M 184.5,448.5 C 183.466,494.828 183.299,541.162 184,587.5C 184.5,588 185,588.5 185.5,589C 251.169,589.833 316.836,589.667 382.5,588.5C 382.808,587.692 383.308,587.025 384,586.5C 384.554,566.161 384.387,545.827 383.5,525.5C 400.167,525.5 416.833,525.5 433.5,525.5C 434.5,525.833 435.167,526.5 435.5,527.5C 435.5,600.833 435.5,674.167 435.5,747.5C 434.833,747.5 434.5,747.833 434.5,748.5C 417.341,749.497 400.008,749.83 382.5,749.5C 381.673,713.571 381.173,677.571 381,641.5C 380.617,640.944 380.117,640.611 379.5,640.5C 315.264,639.169 250.931,639.169 186.5,640.5C 184.506,676.151 183.84,712.151 184.5,748.5C 167.5,748.5 150.5,748.5 133.5,748.5C 133.5,648.5 133.5,548.5 133.5,448.5C 150.5,448.5 167.5,448.5 184.5,448.5 Z"/></g>
<g><path style="opacity:1" fill="#a630fe" d="M 490.5,448.5 C 490.833,448.5 491.167,448.5 491.5,448.5C 491.833,523.669 491.499,598.669 490.5,673.5C 490.5,672.833 490.167,672.5 489.5,672.5C 489.17,597.762 489.503,523.096 490.5,448.5 Z"/></g>
<g><path style="opacity:1" fill="#ff0afe" d="M 491.5,447.5 C 561.528,447.023 631.528,447.523 701.5,449C 738.637,461.29 759.304,486.79 763.5,525.5C 763.647,530.214 763.314,534.881 762.5,539.5C 756.376,572.131 737.71,594.298 706.5,606C 702.344,606.414 698.344,607.414 694.5,609C 693.484,609.519 692.818,610.353 692.5,611.5C 704.984,635.134 716.984,659.134 728.5,683.5C 729.667,687.832 730.833,692.166 732,696.5C 735.678,698.841 737.678,702.174 738,706.5C 739.371,708.041 740.871,709.375 742.5,710.5C 749.54,722.098 755.54,734.265 760.5,747C 760.472,748.07 760.139,748.903 759.5,749.5C 740.473,749.782 721.473,749.449 702.5,748.5C 683.998,712.162 665.498,675.829 647,639.5C 638.272,625.114 625.772,615.614 609.5,611C 587.833,610.333 566.167,610.333 544.5,611C 543.507,631.758 543.173,652.591 543.5,673.5C 526.244,674.485 508.91,674.819 491.5,674.5C 491.167,674.5 490.833,674.5 490.5,674.5C 490.5,674.167 490.5,673.833 490.5,673.5C 491.499,598.669 491.833,523.669 491.5,448.5C 491.5,448.167 491.5,447.833 491.5,447.5 Z"/></g>
<g><path style="opacity:1" fill="#1b7fff" d="M 848.5,447.5 C 848.833,447.5 849.167,447.5 849.5,447.5C 921.335,447.167 993.002,447.501 1064.5,448.5C 1064.65,449.552 1064.48,450.552 1064,451.5C 991.563,451.168 919.397,450.168 847.5,448.5C 848.167,448.5 848.5,448.167 848.5,447.5 Z"/></g>
<g><path style="opacity:1" fill="#6b52ff" d="M 184.5,448.5 C 167.5,448.5 150.5,448.5 133.5,448.5C 133.5,548.5 133.5,648.5 133.5,748.5C 150.5,748.5 167.5,748.5 184.5,748.5C 184.5,748.833 184.5,749.167 184.5,749.5C 167.098,750.831 149.598,750.831 132,749.5C 131.333,649.167 131.333,548.833 132,448.5C 140.435,447.182 149.102,446.515 158,446.5C 166.5,446.667 175,446.833 183.5,447C 184.056,447.383 184.389,447.883 184.5,448.5 Z"/></g>
<g><path style="opacity:1" fill="#3deafe" d="M 382.5,447.5 C 383.472,464.786 383.806,482.12 383.5,499.5C 396.167,499.5 408.833,499.5 421.5,499.5C 421.5,499.833 421.5,500.167 421.5,500.5C 408.254,500.823 395.087,500.489 382,499.5C 381.171,481.995 381.338,464.662 382.5,447.5 Z"/></g>
<g><path style="opacity:1" fill="#0199ff" d="M 847.5,448.5 C 919.397,450.168 991.563,451.168 1064,451.5C 1064.48,450.552 1064.65,449.552 1064.5,448.5C 1065.34,448.842 1065.67,449.508 1065.5,450.5C 1065.83,466.675 1065.5,482.675 1064.5,498.5C 992.499,498.333 920.499,498.5 848.5,499C 843.949,499.453 839.949,500.953 836.5,503.5C 836.158,504.338 835.492,504.672 834.5,504.5C 829.086,503.379 825.92,505.712 825,511.5C 823.602,512.051 822.268,512.384 821,512.5C 818.922,515.87 818.089,519.537 818.5,523.5C 813.397,540.695 818.064,554.861 832.5,566C 837.072,568.134 841.739,569.967 846.5,571.5C 865.735,572.178 885.069,572.845 904.5,573.5C 904.5,590.5 904.5,607.5 904.5,624.5C 888.98,624.779 873.48,624.445 858,623.5C 853.511,624.099 849.011,624.599 844.5,625C 843.944,625.383 843.611,625.883 843.5,626.5C 839.685,628.769 835.685,630.936 831.5,633C 828.296,636.036 825.296,639.203 822.5,642.5C 820.021,645.72 818.188,649.387 817,653.5C 814.259,666.642 817.759,677.642 827.5,686.5C 832.876,690.269 838.542,693.603 844.5,696.5C 839.497,695.75 834.83,694.083 830.5,691.5C 829.334,693.365 829.667,695.032 831.5,696.5C 834.436,697.115 837.103,698.282 839.5,700C 842.557,700.256 845.557,700.756 848.5,701.5C 920.64,701.485 992.64,701.485 1064.5,701.5C 1064.5,716.5 1064.5,731.5 1064.5,746.5C 991.833,746.667 919.166,746.5 846.5,746C 839.403,745.308 832.403,744.141 825.5,742.5C 815.756,740.628 807.423,736.128 800.5,729C 799.167,728.667 797.833,728.333 796.5,728C 789.068,720.661 782.402,712.827 776.5,704.5C 774.629,698.033 772.296,691.7 769.5,685.5C 767.04,669.211 766.873,652.877 769,636.5C 771.66,631 773.993,625.333 776,619.5C 777.734,617.766 779.068,615.766 780,613.5C 780.667,612.167 781.333,612.167 782,613.5C 782.907,609.816 784.407,606.482 786.5,603.5C 787.496,603.586 788.329,603.252 789,602.5C 789.667,600.167 789.667,597.833 789,595.5C 786.27,591.316 783.104,587.65 779.5,584.5C 778.117,578.729 775.45,573.729 771.5,569.5C 768.208,564.42 766.542,558.754 766.5,552.5C 766.664,549.813 766.497,547.146 766,544.5C 765.876,541.749 765.043,540.082 763.5,539.5C 763.167,539.5 762.833,539.5 762.5,539.5C 763.314,534.881 763.647,530.214 763.5,525.5C 764.496,525.586 765.329,525.252 766,524.5C 767.385,506.907 773.885,491.574 785.5,478.5C 790.941,474.234 796.274,469.734 801.5,465C 806.903,462.308 811.903,459.142 816.5,455.5C 826.617,452.422 836.95,450.089 847.5,448.5 Z"/></g>
<g><path style="opacity:1" fill="#0498ff" d="M 384.5,448.5 C 419.86,448.115 455.526,447.782 491.5,447.5C 491.5,447.833 491.5,448.167 491.5,448.5C 491.167,448.5 490.833,448.5 490.5,448.5C 472.468,447.847 454.802,448.514 437.5,450.5C 437.167,450.5 436.833,450.5 436.5,450.5C 435.5,449.167 434.5,449.167 433.5,450.5C 432.504,466.325 432.17,482.325 432.5,498.5C 416.5,498.5 400.5,498.5 384.5,498.5C 384.5,482.5 384.5,466.5 384.5,450.5C 400.655,450.984 416.655,450.484 432.5,449C 416.503,448.5 400.503,448.333 384.5,448.5 Z"/></g>
<g><path style="opacity:1" fill="#3dd2ff" d="M 436.5,450.5 C 436.831,475.006 436.498,499.339 435.5,523.5C 435.666,516.159 435.5,508.826 435,501.5C 430.599,500.533 426.099,500.2 421.5,500.5C 421.5,500.167 421.5,499.833 421.5,499.5C 425.5,499.5 429.5,499.5 433.5,499.5C 433.5,483.167 433.5,466.833 433.5,450.5C 434.5,449.167 435.5,449.167 436.5,450.5 Z"/></g>
<g><path style="opacity:1" fill="#5babfe" d="M 436.5,450.5 C 436.833,450.5 437.167,450.5 437.5,450.5C 437.5,474.833 437.5,499.167 437.5,523.5C 436.708,525.745 435.375,526.078 433.5,524.5C 416.833,524.5 400.167,524.5 383.5,524.5C 400.659,523.503 417.992,523.17 435.5,523.5C 436.498,499.339 436.831,475.006 436.5,450.5 Z"/></g>
<g><path style="opacity:1" fill="#0098ff" d="M 437.5,450.5 C 453.744,450.175 469.911,450.509 486,451.5C 486.333,525.5 486.667,599.5 487,673.5C 487.671,672.748 488.504,672.414 489.5,672.5C 490.167,672.5 490.5,672.833 490.5,673.5C 490.5,673.833 490.5,674.167 490.5,674.5C 489.504,674.414 488.671,674.748 488,675.5C 487.5,682.826 487.334,690.159 487.5,697.5C 486.503,713.992 486.17,730.658 486.5,747.5C 470.833,747.5 455.167,747.5 439.5,747.5C 440.164,672.493 439.497,597.826 437.5,523.5C 437.5,499.167 437.5,474.833 437.5,450.5 Z"/></g>
<g><path style="opacity:1" fill="#0181ff" d="M 490.5,448.5 C 489.503,523.096 489.17,597.762 489.5,672.5C 488.504,672.414 487.671,672.748 487,673.5C 486.667,599.5 486.333,525.5 486,451.5C 469.911,450.509 453.744,450.175 437.5,450.5C 454.802,448.514 472.468,447.847 490.5,448.5 Z"/></g>
<g><path style="opacity:1" fill="#65d4ff" d="M 848.5,447.5 C 848.5,448.167 848.167,448.5 847.5,448.5C 836.95,450.089 826.617,452.422 816.5,455.5C 817.749,453.864 819.416,452.697 821.5,452C 830.454,450.181 839.454,448.681 848.5,447.5 Z"/></g>
<g><path style="opacity:1" fill="#5ed3fe" d="M 816.5,455.5 C 811.903,459.142 806.903,462.308 801.5,465C 796.274,469.734 790.941,474.234 785.5,478.5C 789.669,472.165 795.002,466.999 801.5,463C 805.975,459.429 810.975,456.929 816.5,455.5 Z"/></g>
<g><path style="opacity:1" fill="#4abbfe" d="M 491.5,447.5 C 455.526,447.782 419.86,448.115 384.5,448.5C 384.5,449.167 384.5,449.833 384.5,450.5C 384.5,466.5 384.5,482.5 384.5,498.5C 400.5,498.5 416.5,498.5 432.5,498.5C 432.17,482.325 432.504,466.325 433.5,450.5C 433.5,466.833 433.5,483.167 433.5,499.5C 429.5,499.5 425.5,499.5 421.5,499.5C 408.833,499.5 396.167,499.5 383.5,499.5C 383.806,482.12 383.472,464.786 382.5,447.5C 418.833,446.167 455.167,446.167 491.5,447.5 Z"/></g>
<g><path style="opacity:1" fill="#1fc9fe" d="M 1064.5,498.5 C 1003.67,499.333 942.668,499.833 881.5,500C 869.326,500.169 857.326,500.669 845.5,501.5C 842.583,502.417 839.583,503.084 836.5,503.5C 839.949,500.953 843.949,499.453 848.5,499C 920.499,498.5 992.499,498.333 1064.5,498.5 Z"/></g>
<g><path style="opacity:1" fill="#60f7fe" d="M 1066.5,447.5 C 1067.12,447.611 1067.62,447.944 1068,448.5C 1068.67,464.833 1068.67,481.167 1068,497.5C 1067.53,498.931 1066.7,500.097 1065.5,501C 992.167,501.5 918.834,501.667 845.5,501.5C 857.326,500.669 869.326,500.169 881.5,500C 942.668,499.833 1003.67,499.333 1064.5,498.5C 1065.5,482.675 1065.83,466.675 1065.5,450.5C 1066.4,449.791 1066.74,448.791 1066.5,447.5 Z"/></g>
<g><path style="opacity:0.998" fill="#fcfafc" d="M 545.5,499.5 C 592.168,499.333 638.835,499.5 685.5,500C 709.087,508.096 715.587,523.596 705,546.5C 700.666,550.953 695.499,554.12 689.5,556C 641.163,556.833 592.83,556.667 544.5,555.5C 543.347,537.544 543.18,519.544 544,501.5C 544.717,500.956 545.217,500.289 545.5,499.5 Z"/></g>
<g><path style="opacity:1" fill="#3cb1ff" d="M 834.5,504.5 C 827.752,509.586 822.419,515.919 818.5,523.5C 818.089,519.537 818.922,515.87 821,512.5C 822.268,512.384 823.602,512.051 825,511.5C 825.92,505.712 829.086,503.379 834.5,504.5 Z"/></g>
<g><path style="opacity:1" fill="#0181ff" d="M 437.5,523.5 C 439.497,597.826 440.164,672.493 439.5,747.5C 438.081,748.451 436.415,748.784 434.5,748.5C 434.5,747.833 434.833,747.5 435.5,747.5C 436.833,711.173 437.5,674.506 437.5,637.5C 437.5,600.494 436.833,563.827 435.5,527.5C 435.167,526.5 434.5,525.833 433.5,525.5C 433.5,525.167 433.5,524.833 433.5,524.5C 435.375,526.078 436.708,525.745 437.5,523.5 Z"/></g>
<g><path style="opacity:0.155" fill="#040404" d="M 632.5,523.5 C 642.839,523.334 653.172,523.5 663.5,524C 667.544,524.856 671.211,526.522 674.5,529C 671.833,530 669.167,531 666.5,532C 633.502,532.5 600.502,532.667 567.5,532.5C 567.5,529.833 567.5,527.167 567.5,524.5C 589.34,524.831 611.006,524.497 632.5,523.5 Z"/></g>
<g><path style="opacity:1" fill="#0264ff" d="M 435.5,527.5 C 436.833,563.827 437.5,600.494 437.5,637.5C 437.5,674.506 436.833,711.173 435.5,747.5C 435.5,674.167 435.5,600.833 435.5,527.5 Z"/></g>
<g><path style="opacity:1" fill="#3de4fe" d="M 766.5,552.5 C 764.124,548.595 763.124,544.261 763.5,539.5C 765.043,540.082 765.876,541.749 766,544.5C 766.497,547.146 766.664,549.813 766.5,552.5 Z"/></g>
<g><path style="opacity:1" fill="#52bcff" d="M 771.5,569.5 C 775.45,573.729 778.117,578.729 779.5,584.5C 775.522,580.211 772.855,575.211 771.5,569.5 Z"/></g>
<g><path style="opacity:1" fill="#1afe14" d="M 930.5,571.5 C 948.077,571.175 965.577,571.508 983,572.5C 983.819,589.877 983.652,607.211 982.5,624.5C 964.936,625.824 947.436,625.824 930,624.5C 929.182,606.76 929.348,589.093 930.5,571.5 Z"/></g>
<g><path style="opacity:1" fill="#44f3fe" d="M 846.5,571.5 C 866.213,571.179 885.88,571.512 905.5,572.5C 906.192,573.025 906.692,573.692 907,574.5C 907.667,591.167 907.667,607.833 907,624.5C 906.617,625.056 906.117,625.389 905.5,625.5C 905.83,607.992 905.497,590.659 904.5,573.5C 885.069,572.845 865.735,572.178 846.5,571.5 Z"/></g>
<g><path style="opacity:1" fill="#4437ff" d="M 184.5,448.5 C 185.169,494.569 185.836,540.736 186.5,587C 251.335,587.832 316.001,587.665 380.5,586.5C 381.83,580.202 382.497,573.535 382.5,566.5C 382.5,559.658 382.166,552.991 381.5,546.5C 381.334,539.492 381.5,532.492 382,525.5C 382.383,524.944 382.883,524.611 383.5,524.5C 400.167,524.5 416.833,524.5 433.5,524.5C 433.5,524.833 433.5,525.167 433.5,525.5C 416.833,525.5 400.167,525.5 383.5,525.5C 384.387,545.827 384.554,566.161 384,586.5C 383.308,587.025 382.808,587.692 382.5,588.5C 316.836,589.667 251.169,589.833 185.5,589C 185,588.5 184.5,588 184,587.5C 183.299,541.162 183.466,494.828 184.5,448.5 Z"/></g>
<g><path style="opacity:1" fill="#b2a3ff" d="M 381.5,546.5 C 382.166,552.991 382.5,559.658 382.5,566.5C 382.497,573.535 381.83,580.202 380.5,586.5C 381.481,573.246 381.814,559.913 381.5,546.5 Z"/></g>
<g><path style="opacity:1" fill="#59c1ff" d="M 779.5,584.5 C 783.104,587.65 786.27,591.316 789,595.5C 789.667,597.833 789.667,600.167 789,602.5C 788.329,603.252 787.496,603.586 786.5,603.5C 787.635,601.255 788.135,598.922 788,596.5C 784.533,592.88 781.7,588.88 779.5,584.5 Z"/></g>
<g><path style="opacity:1" fill="#53cfff" d="M 904.5,573.5 C 905.497,590.659 905.83,607.992 905.5,625.5C 885.007,626.497 864.34,626.831 843.5,626.5C 843.611,625.883 843.944,625.383 844.5,625C 849.011,624.599 853.511,624.099 858,623.5C 873.48,624.445 888.98,624.779 904.5,624.5C 904.5,607.5 904.5,590.5 904.5,573.5 Z"/></g>
<g><path style="opacity:0.165" fill="#0c0c0c" d="M 738.5,625.5 C 739.5,625.5 740.5,625.5 741.5,625.5C 741.577,636.728 739.911,637.561 736.5,628C 737.056,626.989 737.722,626.156 738.5,625.5 Z"/></g>
<g><path style="opacity:1" fill="#cabfff" d="M 379.5,640.5 C 315.17,641.309 250.837,641.642 186.5,641.5C 186.5,641.167 186.5,640.833 186.5,640.5C 250.931,639.169 315.264,639.169 379.5,640.5 Z"/></g>
<g><path style="opacity:1" fill="#7ff0fe" d="M 767.5,638.5 C 764.863,653.492 764.863,668.492 767.5,683.5C 765.86,680.512 765.026,677.179 765,673.5C 764.333,663.833 764.333,654.167 765,644.5C 765.24,642.148 766.073,640.148 767.5,638.5 Z"/></g>
<g><path style="opacity:1" fill="#7465fe" d="M 186.5,640.5 C 186.5,640.833 186.5,641.167 186.5,641.5C 185.833,677.5 185.167,713.5 184.5,749.5C 184.5,749.167 184.5,748.833 184.5,748.5C 183.84,712.151 184.506,676.151 186.5,640.5 Z"/></g>
<g><path style="opacity:1" fill="#4cbbff" d="M 822.5,642.5 C 817.874,653.64 817.374,664.973 821,676.5C 822.992,679.983 825.158,683.316 827.5,686.5C 817.759,677.642 814.259,666.642 817,653.5C 818.188,649.387 820.021,645.72 822.5,642.5 Z"/></g>
<g><path style="opacity:1" fill="#38b3ff" d="M 786.5,603.5 C 784.407,606.482 782.907,609.816 782,613.5C 781.333,612.167 780.667,612.167 780,613.5C 779.068,615.766 777.734,617.766 776,619.5C 773.993,625.333 771.66,631 769,636.5C 766.873,652.877 767.04,669.211 769.5,685.5C 768.833,684.833 768.167,684.167 767.5,683.5C 764.863,668.492 764.863,653.492 767.5,638.5C 767.34,636.801 767.506,635.134 768,633.5C 772.34,622.337 778.506,612.337 786.5,603.5 Z"/></g>
<g><path style="opacity:1" fill="#feb9ff" d="M 543.5,673.5 C 535.193,674.831 526.527,675.498 517.5,675.5C 508.66,675.5 499.993,675.166 491.5,674.5C 508.91,674.819 526.244,674.485 543.5,673.5 Z"/></g>
<g><path style="opacity:1" fill="#ff54fe" d="M 728.5,683.5 C 733.917,692.065 738.584,701.065 742.5,710.5C 740.871,709.375 739.371,708.041 738,706.5C 737.678,702.174 735.678,698.841 732,696.5C 730.833,692.166 729.667,687.832 728.5,683.5 Z"/></g>
<g><path style="opacity:1" fill="#38e4f6" d="M 490.5,674.5 C 490.201,682.253 490.534,689.92 491.5,697.5C 490.883,697.611 490.383,697.944 490,698.5C 489.5,715.83 489.333,733.163 489.5,750.5C 471.5,750.5 453.5,750.5 435.5,750.5C 452.659,749.503 469.992,749.17 487.5,749.5C 487.5,732.167 487.5,714.833 487.5,697.5C 487.334,690.159 487.5,682.826 488,675.5C 488.671,674.748 489.504,674.414 490.5,674.5 Z"/></g>
<g><path style="opacity:1" fill="#62d7fe" d="M 767.5,683.5 C 768.167,684.167 768.833,684.833 769.5,685.5C 772.296,691.7 774.629,698.033 776.5,704.5C 774.19,701.898 772.357,698.898 771,695.5C 769.905,691.392 768.738,687.392 767.5,683.5 Z"/></g>
<g><path style="opacity:1" fill="#038cff" d="M 844.5,696.5 C 845.568,697.434 846.901,697.768 848.5,697.5C 848.918,698.222 849.584,698.722 850.5,699C 922.174,698.836 993.507,699.669 1064.5,701.5C 992.64,701.485 920.64,701.485 848.5,701.5C 845.557,700.756 842.557,700.256 839.5,700C 837.103,698.282 834.436,697.115 831.5,696.5C 829.667,695.032 829.334,693.365 830.5,691.5C 834.83,694.083 839.497,695.75 844.5,696.5 Z"/></g>
<g><path style="opacity:1" fill="#1eb1fe" d="M 848.5,697.5 C 902.833,697.5 957.167,697.5 1011.5,697.5C 1029.33,698.497 1047.33,698.83 1065.5,698.5C 1065.5,715.167 1065.5,731.833 1065.5,748.5C 997.167,748.5 928.833,748.5 860.5,748.5C 848.899,748.705 837.566,747.205 826.5,744C 825.944,743.617 825.611,743.117 825.5,742.5C 832.403,744.141 839.403,745.308 846.5,746C 919.166,746.5 991.833,746.667 1064.5,746.5C 1064.5,731.5 1064.5,716.5 1064.5,701.5C 993.507,699.669 922.174,698.836 850.5,699C 849.584,698.722 848.918,698.222 848.5,697.5 Z"/></g>
<g><path style="opacity:1" fill="#55a5fe" d="M 487.5,697.5 C 487.5,714.833 487.5,732.167 487.5,749.5C 469.992,749.17 452.659,749.503 435.5,750.5C 417.659,750.83 399.992,750.497 382.5,749.5C 400.008,749.83 417.341,749.497 434.5,748.5C 436.415,748.784 438.081,748.451 439.5,747.5C 455.167,747.5 470.833,747.5 486.5,747.5C 486.17,730.658 486.503,713.992 487.5,697.5 Z"/></g>
<g><path style="opacity:1" fill="#34fe34" d="M 491.5,697.5 C 508.744,697.175 525.91,697.508 543,698.5C 543.667,715.5 543.667,732.5 543,749.5C 525.243,750.492 507.41,750.826 489.5,750.5C 489.333,733.163 489.5,715.83 490,698.5C 490.383,697.944 490.883,697.611 491.5,697.5 Z"/></g>
<g><path style="opacity:1" fill="#00ff00" d="M 491.5,698.5 C 508.167,698.5 524.833,698.5 541.5,698.5C 541.5,715.167 541.5,731.833 541.5,748.5C 524.5,748.5 507.5,748.5 490.5,748.5C 490.182,731.756 490.515,715.089 491.5,698.5 Z"/></g>
<g><path style="opacity:1" fill="#31f5fe" d="M 1011.5,697.5 C 1030.17,697.5 1048.83,697.5 1067.5,697.5C 1067.67,714.503 1067.5,731.503 1067,748.5C 1066.5,749 1066,749.5 1065.5,750C 1039.17,750.5 1012.84,750.667 986.5,750.5C 944.5,749.833 902.5,749.167 860.5,748.5C 928.833,748.5 997.167,748.5 1065.5,748.5C 1065.5,731.833 1065.5,715.167 1065.5,698.5C 1047.33,698.83 1029.33,698.497 1011.5,697.5 Z"/></g>
<g><path style="opacity:1" fill="#fe75fe" d="M 702.5,748.5 C 721.473,749.449 740.473,749.782 759.5,749.5C 741.338,750.662 723.005,750.829 704.5,750C 703.584,749.722 702.918,749.222 702.5,748.5 Z"/></g>
<g><path style="opacity:1" fill="#7df2fe" d="M 776.5,704.5 C 782.402,712.827 789.068,720.661 796.5,728C 797.833,728.333 799.167,728.667 800.5,729C 807.423,736.128 815.756,740.628 825.5,742.5C 825.611,743.117 825.944,743.617 826.5,744C 837.566,747.205 848.899,748.705 860.5,748.5C 902.5,749.167 944.5,749.833 986.5,750.5C 936.817,750.925 887.15,750.425 837.5,749C 812.723,743.201 792.89,730.034 778,709.5C 777.392,707.846 776.892,706.179 776.5,704.5 Z"/></g>
<g><path style="opacity:0.998" fill="#19fb16" d="M 470.5,798.5 C 470.369,799.239 470.536,799.906 471,800.5C 474.27,803.972 478.103,806.305 482.5,807.5C 483.043,807.56 483.376,807.893 483.5,808.5C 482.398,809.176 481.398,809.842 480.5,810.5C 479.833,810.5 479.167,810.5 478.5,810.5C 472.8,809.667 467.3,808 462,805.5C 457.658,805.179 455.824,807.179 456.5,811.5C 454.684,813.118 453.351,815.118 452.5,817.5C 451.053,818.134 450.387,819.301 450.5,821C 451.299,823.149 452.133,825.316 453,827.5C 459.79,831.476 466.623,835.31 473.5,839C 474.337,840.011 474.67,841.178 474.5,842.5C 475.822,842.33 476.989,842.663 478,843.5C 478.333,848.5 478.667,853.5 479,858.5C 479.383,859.056 479.883,859.389 480.5,859.5C 478.883,862.784 476.55,865.451 473.5,867.5C 473.03,866.307 472.03,865.64 470.5,865.5C 458.856,869.776 447.523,869.276 436.5,864C 439.321,861.859 440.654,859.025 440.5,855.5C 441.482,854.859 442.482,854.193 443.5,853.5C 446.503,857.834 450.503,859.168 455.5,857.5C 460.968,859.062 463.635,856.729 463.5,850.5C 463.66,848.645 462.993,847.312 461.5,846.5C 459.754,844.748 457.754,843.415 455.5,842.5C 454.972,841.279 454.305,840.113 453.5,839C 446.333,834.5 440.5,828.667 436,821.5C 435.657,815.353 436.491,809.353 438.5,803.5C 448.403,796.919 459.07,795.253 470.5,798.5 Z"/></g>
<g><path style="opacity:1" fill="#14fc13" d="M 526.5,797.5 C 526.351,800.607 526.851,803.607 528,806.5C 535.09,826.778 542.757,846.778 551,866.5C 552.011,867.337 553.178,867.67 554.5,867.5C 555.567,869.879 554.567,870.879 551.5,870.5C 551.047,869.542 550.381,868.708 549.5,868C 544.511,867.501 539.511,867.334 534.5,867.5C 533.936,863.04 532.27,859.04 529.5,855.5C 525.773,854.332 522.107,853.165 518.5,852C 521.779,850.851 525.113,850.018 528.5,849.5C 528.254,843.098 527.42,836.765 526,830.5C 523.981,827.288 521.147,825.622 517.5,825.5C 517.5,827.167 517.5,828.833 517.5,830.5C 517.737,831.791 517.404,832.791 516.5,833.5C 515.745,831.534 514.579,831.2 513,832.5C 512.562,835.376 511.562,838.043 510,840.5C 509.216,843.76 509.383,846.927 510.5,850C 508.582,852.109 508.249,854.275 509.5,856.5C 507.577,861.768 505.744,867.101 504,872.5C 503.329,873.252 502.496,873.586 501.5,873.5C 500.575,869.241 497.908,866.574 493.5,865.5C 492.978,864.393 492.645,863.226 492.5,862C 495.749,853.753 498.082,845.253 499.5,836.5C 504.164,826.485 508.331,816.152 512,805.5C 512.801,802.633 512.634,799.966 511.5,797.5C 510.833,797.5 510.5,797.167 510.5,796.5C 511.097,795.861 511.93,795.528 513,795.5C 517.562,796.071 522.062,796.737 526.5,797.5 Z M 517.5,830.5 C 517.833,830.5 518.167,830.5 518.5,830.5C 518.5,831.167 518.833,831.5 519.5,831.5C 519.898,835.761 520.898,839.761 522.5,843.5C 522.5,844.167 522.5,844.833 522.5,845.5C 519.748,845.762 516.748,845.762 513.5,845.5C 514.5,841.5 515.5,837.5 516.5,833.5C 517.404,832.791 517.737,831.791 517.5,830.5 Z"/></g>
<g><path style="opacity:1" fill="#17fa15" d="M 628.5,796.5 C 629.097,795.861 629.93,795.528 631,795.5C 635.665,796.022 640.165,796.689 644.5,797.5C 644.351,800.607 644.851,803.607 646,806.5C 653.253,825.352 660.253,844.352 667,863.5C 668.451,865.464 670.284,866.797 672.5,867.5C 673.914,869.598 673.248,870.598 670.5,870.5C 669.942,869.21 668.942,868.377 667.5,868C 663.314,867.427 659.147,867.594 655,868.5C 653.213,868.241 651.713,867.575 650.5,866.5C 649.273,857.101 643.773,853.101 634,854.5C 632.014,854.569 630.514,855.235 629.5,856.5C 628.25,856.577 627.417,857.244 627,858.5C 625.136,863.091 623.47,867.757 622,872.5C 621.329,873.252 620.496,873.586 619.5,873.5C 618.55,870.885 616.883,868.885 614.5,867.5C 610.856,866.595 609.689,864.262 611,860.5C 613.34,853.823 615.673,847.157 618,840.5C 619.333,839.833 620.333,838.833 621,837.5C 624.598,825.997 628.431,814.663 632.5,803.5C 631.914,800.651 630.58,798.318 628.5,796.5 Z M 637.5,830.5 C 637.5,830.833 637.5,831.167 637.5,831.5C 638.192,835.6 639.192,839.6 640.5,843.5C 640.557,844.609 640.89,845.609 641.5,846.5C 637.98,846.195 634.647,845.362 631.5,844C 633.042,839.173 635.042,834.673 637.5,830.5 Z"/></g>
<g><path style="opacity:0.809" fill="#80f980" d="M 470.5,798.5 C 475.637,799.968 479.637,802.968 482.5,807.5C 478.103,806.305 474.27,803.972 471,800.5C 470.536,799.906 470.369,799.239 470.5,798.5 Z"/></g>
<g><path style="opacity:1" fill="#007400" d="M 678.5,794.5 C 679.301,796.042 679.634,797.708 679.5,799.5C 680.254,802.091 681.921,803.924 684.5,805C 682.942,805.21 681.609,805.71 680.5,806.5C 678.856,806.714 677.356,806.38 676,805.5C 675.444,803.115 675.61,800.782 676.5,798.5C 676.157,796.517 676.824,795.183 678.5,794.5 Z"/></g>
<g><path style="opacity:1" fill="#00b600" d="M 679.5,799.5 C 683.148,801.582 687.148,802.749 691.5,803C 692.38,804.356 692.714,805.856 692.5,807.5C 691.167,807.5 689.833,807.5 688.5,807.5C 686.052,806.527 683.385,806.194 680.5,806.5C 681.609,805.71 682.942,805.21 684.5,805C 681.921,803.924 680.254,802.091 679.5,799.5 Z"/></g>
<g><path style="opacity:0.676" fill="#66fd65" d="M 701.5,796.5 C 710.058,797.797 718.058,800.464 725.5,804.5C 727.555,806.555 729.221,808.888 730.5,811.5C 721.6,806.413 712.267,802.08 702.5,798.5C 701.702,798.043 701.369,797.376 701.5,796.5 Z"/></g>
<g><path style="opacity:1" fill="#007500" d="M 558.5,796.5 C 560.569,799.476 562.903,802.309 565.5,805C 564.263,805.232 563.263,805.732 562.5,806.5C 560.833,806.5 559.167,806.5 557.5,806.5C 557.342,803.098 557.676,799.764 558.5,796.5 Z"/></g>
<g><path style="opacity:0.796" fill="#00b700" d="M 558.5,796.5 C 558.5,796.167 558.5,795.833 558.5,795.5C 561.121,796.121 562.788,797.788 563.5,800.5C 567.451,801.714 571.451,802.714 575.5,803.5C 576.452,805.045 576.785,806.712 576.5,808.5C 574.708,808.634 573.042,808.301 571.5,807.5C 568.713,806.523 565.713,806.19 562.5,806.5C 563.263,805.732 564.263,805.232 565.5,805C 562.903,802.309 560.569,799.476 558.5,796.5 Z"/></g>
<g><path style="opacity:0.999" fill="#15fc13" d="M 678.5,794.5 C 686.25,794.451 693.916,795.118 701.5,796.5C 701.369,797.376 701.702,798.043 702.5,798.5C 712.267,802.08 721.6,806.413 730.5,811.5C 734.248,815.239 737.581,819.239 740.5,823.5C 737.358,834.636 730.025,841.303 718.5,843.5C 717.5,843.5 716.5,843.5 715.5,843.5C 715.238,844.978 715.571,846.311 716.5,847.5C 720.313,850.288 724.313,852.788 728.5,855C 731.539,859.208 735.539,862.041 740.5,863.5C 741.726,863.48 742.726,863.147 743.5,862.5C 744.525,862.897 744.692,863.563 744,864.5C 742.67,865.582 741.17,866.249 739.5,866.5C 738.508,864.974 737.008,864.307 735,864.5C 730.601,866.034 726.101,866.534 721.5,866C 715.813,861.311 710.479,856.311 705.5,851C 703.527,850.505 701.527,850.338 699.5,850.5C 699.325,852.621 699.659,854.621 700.5,856.5C 700.5,861.833 700.5,867.167 700.5,872.5C 699.167,872.5 697.833,872.5 696.5,872.5C 696.389,871.883 696.056,871.383 695.5,871C 692.518,870.502 689.518,870.335 686.5,870.5C 685.457,851.079 683.957,831.745 682,812.5C 680.519,811.529 679.685,810.196 679.5,808.5C 682.482,808.037 685.482,807.704 688.5,807.5C 689.833,807.5 691.167,807.5 692.5,807.5C 692.714,805.856 692.38,804.356 691.5,803C 687.148,802.749 683.148,801.582 679.5,799.5C 679.634,797.708 679.301,796.042 678.5,794.5 Z M 702.5,810.5 C 703.167,810.833 703.833,811.167 704.5,811.5C 713.457,814.406 716.124,820.073 712.5,828.5C 710.772,830.226 708.772,831.559 706.5,832.5C 705.167,833.167 703.833,833.833 702.5,834.5C 701.508,827.352 701.175,820.019 701.5,812.5C 701.328,811.508 701.662,810.842 702.5,810.5 Z"/></g>
<g><path style="opacity:1" fill="#00cd00" d="M 478.5,810.5 C 475.696,812.405 472.696,814.071 469.5,815.5C 470.153,808.167 466.82,805.501 459.5,807.5C 459.5,808.5 459.5,809.5 459.5,810.5C 458.391,810.557 457.391,810.89 456.5,811.5C 455.824,807.179 457.658,805.179 462,805.5C 467.3,808 472.8,809.667 478.5,810.5 Z"/></g>
<g><path style="opacity:0.82" fill="#004e00" d="M 747.5,804.5 C 749.262,808.761 750.429,813.428 751,818.5C 751.467,831.537 752.967,844.204 755.5,856.5C 755.234,860.571 755.567,864.571 756.5,868.5C 759.22,870.111 762.22,870.944 765.5,871C 766.252,871.671 766.586,872.504 766.5,873.5C 761.833,873.167 757.167,872.833 752.5,872.5C 751.036,851.807 749.37,831.14 747.5,810.5C 747.5,808.5 747.5,806.5 747.5,804.5 Z"/></g>
<g><path style="opacity:1" fill="#12fe10" d="M 768.5,798.5 C 768.333,822.502 768.5,846.502 769,870.5C 769.671,871.252 770.504,871.586 771.5,871.5C 771.715,873.179 771.048,874.179 769.5,874.5C 767.75,869.919 764.416,867.419 759.5,867C 758.874,866.25 758.374,865.416 758,864.5C 757.015,845.475 755.681,826.475 754,807.5C 753.617,806.944 753.117,806.611 752.5,806.5C 750.937,805.055 749.604,803.389 748.5,801.5C 755.201,800.716 761.868,799.716 768.5,798.5 Z"/></g>
<g><path style="opacity:1" fill="#0cfc0b" d="M 595.5,836.5 C 595.5,838.5 596.5,839.5 598.5,839.5C 598.5,840.5 598.5,841.5 598.5,842.5C 597.5,842.5 596.5,842.5 595.5,842.5C 595.586,841.504 595.252,840.671 594.5,840C 591.5,839.333 588.5,839.333 585.5,840C 584.663,841.011 584.33,842.178 584.5,843.5C 583.167,843.5 582.5,844.167 582.5,845.5C 581.504,845.414 580.671,845.748 580,846.5C 579.333,853.833 579.333,861.167 580,868.5C 580.671,869.252 581.504,869.586 582.5,869.5C 582.5,870.5 582.5,871.5 582.5,872.5C 581.167,872.5 579.833,872.5 578.5,872.5C 578.586,871.504 578.252,870.671 577.5,870C 574.447,869.821 571.447,869.321 568.5,868.5C 567.95,866.343 567.283,864.343 566.5,862.5C 566.5,862.167 566.5,861.833 566.5,861.5C 566.269,853.495 565.935,845.495 565.5,837.5C 565.687,828.139 565.354,818.805 564.5,809.5C 569.239,810.246 573.906,810.413 578.5,810C 577.851,813.583 577.517,817.25 577.5,821C 577.399,825.281 577.899,829.448 579,833.5C 582.356,835.037 585.523,834.703 588.5,832.5C 591.308,833.094 593.641,834.427 595.5,836.5 Z"/></g>
<g><path style="opacity:1" fill="#007600" d="M 469.5,815.5 C 467.436,815.238 466.103,814.071 465.5,812C 463.655,810.872 461.655,810.372 459.5,810.5C 459.5,809.5 459.5,808.5 459.5,807.5C 466.82,805.501 470.153,808.167 469.5,815.5 Z"/></g>
<g><path style="opacity:0.725" fill="#005300" d="M 712.5,828.5 C 716.124,820.073 713.457,814.406 704.5,811.5C 705.204,809.656 706.537,809.156 708.5,810C 711.949,812.482 715.116,815.315 718,818.5C 719.027,822.18 718.194,825.347 715.5,828C 714.552,828.483 713.552,828.649 712.5,828.5 Z"/></g>
<g><path style="opacity:1" fill="#2ef92c" d="M 558.5,795.5 C 569.337,794.485 580.337,794.485 591.5,795.5C 598.833,795.833 606.167,796.167 613.5,796.5C 612.728,800.452 612.395,804.452 612.5,808.5C 611.5,808.5 610.5,808.5 609.5,808.5C 609.141,806.629 608.141,805.129 606.5,804C 599.174,803.5 591.841,803.334 584.5,803.5C 584.5,804.833 584.5,806.167 584.5,807.5C 583.833,807.5 583.5,807.833 583.5,808.5C 582.5,808.5 581.5,808.5 580.5,808.5C 579.468,816.472 579.302,824.472 580,832.5C 582.045,834.043 583.545,833.71 584.5,831.5C 588.519,831.354 592.519,831.021 596.5,830.5C 595.659,832.379 595.325,834.379 595.5,836.5C 593.641,834.427 591.308,833.094 588.5,832.5C 585.523,834.703 582.356,835.037 579,833.5C 577.899,829.448 577.399,825.281 577.5,821C 577.517,817.25 577.851,813.583 578.5,810C 573.906,810.413 569.239,810.246 564.5,809.5C 565.354,818.805 565.687,828.139 565.5,837.5C 564.495,830.003 563.662,822.336 563,814.5C 562.617,813.944 562.117,813.611 561.5,813.5C 560.962,811.883 560.629,810.216 560.5,808.5C 561.833,808.5 563.167,808.5 564.5,808.5C 565.167,808.5 565.5,808.167 565.5,807.5C 567.5,807.5 569.5,807.5 571.5,807.5C 573.042,808.301 574.708,808.634 576.5,808.5C 576.785,806.712 576.452,805.045 575.5,803.5C 571.451,802.714 567.451,801.714 563.5,800.5C 562.788,797.788 561.121,796.121 558.5,795.5 Z"/></g>
<g><path style="opacity:0.866" fill="#007c00" d="M 608.5,808.5 C 601.167,808.167 593.833,807.833 586.5,807.5C 589.428,806.18 592.761,805.514 596.5,805.5C 599.833,805.667 603.167,805.833 606.5,806C 607.381,806.708 608.047,807.542 608.5,808.5 Z"/></g>
<g><path style="opacity:1" fill="#00b000" d="M 609.5,808.5 C 609.167,808.5 608.833,808.5 608.5,808.5C 608.047,807.542 607.381,806.708 606.5,806C 603.167,805.833 599.833,805.667 596.5,805.5C 592.761,805.514 589.428,806.18 586.5,807.5C 585.833,807.5 585.167,807.5 584.5,807.5C 584.5,806.167 584.5,804.833 584.5,803.5C 591.841,803.334 599.174,803.5 606.5,804C 608.141,805.129 609.141,806.629 609.5,808.5 Z"/></g>
<g><path style="opacity:0.804" fill="#8dfe8d" d="M 725.5,804.5 C 729.137,805.986 732.47,807.986 735.5,810.5C 739.108,814.055 740.774,818.388 740.5,823.5C 737.581,819.239 734.248,815.239 730.5,811.5C 729.221,808.888 727.555,806.555 725.5,804.5 Z"/></g>
<g><path style="opacity:1" fill="#008a00" d="M 748.5,801.5 C 749.604,803.389 750.937,805.055 752.5,806.5C 753.412,823.173 754.412,839.84 755.5,856.5C 752.967,844.204 751.467,831.537 751,818.5C 750.429,813.428 749.262,808.761 747.5,804.5C 747.263,803.209 747.596,802.209 748.5,801.5 Z"/></g>
<g><path style="opacity:0.824" fill="#004c00" d="M 560.5,808.5 C 560.629,810.216 560.962,811.883 561.5,813.5C 562.115,829.859 563.781,845.859 566.5,861.5C 566.5,861.833 566.5,862.167 566.5,862.5C 566.5,866.167 566.5,869.833 566.5,873.5C 565.85,873.804 565.183,874.137 564.5,874.5C 561.637,853.282 559.637,831.949 558.5,810.5C 558.833,809.5 559.5,808.833 560.5,808.5 Z"/></g>
<g><path style="opacity:0.834" fill="#005100" d="M 678.5,809.5 C 680.092,813.248 680.925,817.248 681,821.5C 682.72,838.801 683.886,856.135 684.5,873.5C 683.85,873.804 683.183,874.137 682.5,874.5C 680.088,854.054 678.088,833.554 676.5,813C 676.608,811.319 677.275,810.152 678.5,809.5 Z"/></g>
<g><path style="opacity:0.649" fill="#78ff78" d="M 583.5,808.5 C 583.175,816.352 583.508,824.018 584.5,831.5C 583.545,833.71 582.045,834.043 580,832.5C 579.302,824.472 579.468,816.472 580.5,808.5C 581.5,808.5 582.5,808.5 583.5,808.5 Z"/></g>
<g><path style="opacity:1" fill="#008300" d="M 433.5,808.5 C 434.326,813.316 434.826,818.316 435,823.5C 436.481,824.471 437.315,825.804 437.5,827.5C 436.206,826.71 435.039,825.71 434,824.5C 433.055,820.886 432.388,817.219 432,813.5C 431.617,814.056 431.117,814.389 430.5,814.5C 430.833,813.167 431.167,811.833 431.5,810.5C 432.167,809.833 432.833,809.167 433.5,808.5 Z"/></g>
<g><path style="opacity:1" fill="#00b400" d="M 438.5,803.5 C 436.491,809.353 435.657,815.353 436,821.5C 440.5,828.667 446.333,834.5 453.5,839C 454.305,840.113 454.972,841.279 455.5,842.5C 452.726,841.277 450.059,839.777 447.5,838C 444.665,833.999 441.332,830.499 437.5,827.5C 437.315,825.804 436.481,824.471 435,823.5C 434.826,818.316 434.326,813.316 433.5,808.5C 434.833,806.5 436.5,804.833 438.5,803.5 Z"/></g>
<g><path style="opacity:0.803" fill="#004e01" d="M 437.5,827.5 C 441.332,830.499 444.665,833.999 447.5,838C 450.059,839.777 452.726,841.277 455.5,842.5C 457.754,843.415 459.754,844.748 461.5,846.5C 461.663,848.857 461.497,851.19 461,853.5C 460.329,854.252 459.496,854.586 458.5,854.5C 458.66,852.801 458.494,851.134 458,849.5C 449.296,842.976 440.963,835.976 433,828.5C 430.792,824.116 429.959,819.449 430.5,814.5C 431.117,814.389 431.617,814.056 432,813.5C 432.388,817.219 433.055,820.886 434,824.5C 435.039,825.71 436.206,826.71 437.5,827.5 Z"/></g>
<g><path style="opacity:1" fill="#00d200" d="M 628.5,796.5 C 630.58,798.318 631.914,800.651 632.5,803.5C 628.431,814.663 624.598,825.997 621,837.5C 620.333,838.833 619.333,839.833 618,840.5C 615.673,847.157 613.34,853.823 611,860.5C 609.689,864.262 610.856,866.595 614.5,867.5C 611.136,868.127 609.136,866.794 608.5,863.5C 612.378,853.366 615.545,843.033 618,832.5C 623.28,821.995 626.946,810.995 629,799.5C 628.617,798.944 628.117,798.611 627.5,798.5C 627.328,797.508 627.662,796.842 628.5,796.5 Z"/></g>
<g><path style="opacity:1" fill="#00b600" d="M 511.5,797.5 C 512.634,799.966 512.801,802.633 512,805.5C 508.331,816.152 504.164,826.485 499.5,836.5C 499.535,832.183 500.868,828.35 503.5,825C 505.207,817.546 507.707,810.379 511,803.5C 511.495,801.527 511.662,799.527 511.5,797.5 Z"/></g>
<g><path style="opacity:1" fill="#009400" d="M 561.5,813.5 C 562.117,813.611 562.617,813.944 563,814.5C 563.662,822.336 564.495,830.003 565.5,837.5C 565.935,845.495 566.269,853.495 566.5,861.5C 563.781,845.859 562.115,829.859 561.5,813.5 Z"/></g>
<g><path style="opacity:1" fill="#6aff69" d="M 701.5,812.5 C 701.175,820.019 701.508,827.352 702.5,834.5C 701.448,836.256 699.781,836.923 697.5,836.5C 697.568,828.486 697.901,820.486 698.5,812.5C 699.5,812.5 700.5,812.5 701.5,812.5 Z"/></g>
<g><path style="opacity:0.945" fill="#75fe75" d="M 772.5,810.5 C 771.876,830.827 771.543,851.161 771.5,871.5C 770.504,871.586 769.671,871.252 769,870.5C 768.5,846.502 768.333,822.502 768.5,798.5C 769.583,798.461 770.583,798.127 771.5,797.5C 772.492,801.783 772.826,806.116 772.5,810.5 Z"/></g>
<g><path style="opacity:1" fill="#00ca00" d="M 706.5,832.5 C 708.772,831.559 710.772,830.226 712.5,828.5C 713.552,828.649 714.552,828.483 715.5,828C 718.194,825.347 719.027,822.18 718,818.5C 715.116,815.315 711.949,812.482 708.5,810C 706.537,809.156 705.204,809.656 704.5,811.5C 703.833,811.167 703.167,810.833 702.5,810.5C 702.5,809.5 702.5,808.5 702.5,807.5C 710.513,807.677 716.347,811.343 720,818.5C 721.414,827.408 717.747,832.741 709,834.5C 707.624,834.316 706.791,833.649 706.5,832.5 Z"/></g>
<g><path style="opacity:1" fill="#008600" d="M 522.5,845.5 C 522.5,844.833 522.5,844.167 522.5,843.5C 523.497,843.53 524.164,843.03 524.5,842C 523.793,838.8 522.96,835.633 522,832.5C 521.329,831.748 520.496,831.414 519.5,831.5C 518.833,831.5 518.5,831.167 518.5,830.5C 518.5,829.5 518.5,828.5 518.5,827.5C 520.39,827.297 521.89,827.963 523,829.5C 524.962,834.656 525.795,839.989 525.5,845.5C 524.5,845.5 523.5,845.5 522.5,845.5 Z"/></g>
<g><path style="opacity:0.683" fill="#7bff7a" d="M 452.5,817.5 C 452.346,821.025 453.679,823.859 456.5,826C 464.695,829.392 472.195,833.892 479,839.5C 483.01,845.927 483.51,852.594 480.5,859.5C 479.883,859.389 479.383,859.056 479,858.5C 478.667,853.5 478.333,848.5 478,843.5C 476.989,842.663 475.822,842.33 474.5,842.5C 474.67,841.178 474.337,840.011 473.5,839C 466.623,835.31 459.79,831.476 453,827.5C 452.133,825.316 451.299,823.149 450.5,821C 450.387,819.301 451.053,818.134 452.5,817.5 Z"/></g>
<g><path style="opacity:0.688" fill="#8bff8a" d="M 644.5,797.5 C 646.124,797.36 647.29,798.027 648,799.5C 656.272,822.152 664.439,844.819 672.5,867.5C 670.284,866.797 668.451,865.464 667,863.5C 660.253,844.352 653.253,825.352 646,806.5C 644.851,803.607 644.351,800.607 644.5,797.5 Z"/></g>
<g><path style="opacity:0.719" fill="#006a00" d="M 510.5,796.5 C 510.5,797.167 510.833,797.5 511.5,797.5C 511.662,799.527 511.495,801.527 511,803.5C 507.707,810.379 505.207,817.546 503.5,825C 500.868,828.35 499.535,832.183 499.5,836.5C 498.768,837.808 497.934,839.142 497,840.5C 495.47,848.354 493.303,856.021 490.5,863.5C 490.667,864.167 490.833,864.833 491,865.5C 493.482,866.998 495.982,868.498 498.5,870C 499.252,870.671 499.586,871.504 499.5,872.5C 495.43,871.644 491.43,870.477 487.5,869C 486.484,868.481 485.818,867.647 485.5,866.5C 492.238,847.952 498.571,829.286 504.5,810.5C 506.305,805.751 508.305,801.085 510.5,796.5 Z"/></g>
<g><path style="opacity:0.817" fill="#004900" d="M 640.5,843.5 C 639.192,839.6 638.192,835.6 637.5,831.5C 639.499,830.143 640.665,830.81 641,833.5C 641.315,836.372 641.815,839.205 642.5,842C 642.164,843.03 641.497,843.53 640.5,843.5 Z"/></g>
<g><path style="opacity:1" fill="#77ff76" d="M 596.5,830.5 C 597.5,830.5 598.5,830.5 599.5,830.5C 599.632,833.57 599.299,836.57 598.5,839.5C 596.5,839.5 595.5,838.5 595.5,836.5C 595.325,834.379 595.659,832.379 596.5,830.5 Z"/></g>
<g><path style="opacity:1" fill="#00d600" d="M 752.5,806.5 C 753.117,806.611 753.617,806.944 754,807.5C 755.681,826.475 757.015,845.475 758,864.5C 758.374,865.416 758.874,866.25 759.5,867C 764.416,867.419 767.75,869.919 769.5,874.5C 768.609,873.89 767.609,873.557 766.5,873.5C 766.586,872.504 766.252,871.671 765.5,871C 762.22,870.944 759.22,870.111 756.5,868.5C 755.567,864.571 755.234,860.571 755.5,856.5C 754.412,839.84 753.412,823.173 752.5,806.5 Z"/></g>
<g><path style="opacity:0.697" fill="#8bfe8b" d="M 526.5,797.5 C 527.5,797.5 528.5,797.5 529.5,797.5C 530.546,801.924 531.879,806.257 533.5,810.5C 540.695,829.418 547.695,848.418 554.5,867.5C 553.178,867.67 552.011,867.337 551,866.5C 542.757,846.778 535.09,826.778 528,806.5C 526.851,803.607 526.351,800.607 526.5,797.5 Z"/></g>
<g><path style="opacity:0.707" fill="#009d00" d="M 595.5,842.5 C 591.821,842.724 588.154,843.058 584.5,843.5C 584.33,842.178 584.663,841.011 585.5,840C 588.5,839.333 591.5,839.333 594.5,840C 595.252,840.671 595.586,841.504 595.5,842.5 Z"/></g>
<g><path style="opacity:1" fill="#007f00" d="M 641.5,846.5 C 640.89,845.609 640.557,844.609 640.5,843.5C 641.497,843.53 642.164,843.03 642.5,842C 641.815,839.205 641.315,836.372 641,833.5C 640.665,830.81 639.499,830.143 637.5,831.5C 637.5,831.167 637.5,830.833 637.5,830.5C 638.077,828.348 639.244,828.015 641,829.5C 642.386,835.16 643.553,840.827 644.5,846.5C 643.5,846.5 642.5,846.5 641.5,846.5 Z"/></g>
<g><path style="opacity:0.68" fill="#006b00" d="M 627.5,798.5 C 628.117,798.611 628.617,798.944 629,799.5C 626.946,810.995 623.28,821.995 618,832.5C 615.545,843.033 612.378,853.366 608.5,863.5C 609.136,866.794 611.136,868.127 614.5,867.5C 616.883,868.885 618.55,870.885 619.5,873.5C 613.731,872.194 608.398,870.027 603.5,867C 611.377,844.088 619.377,821.255 627.5,798.5 Z"/></g>
<g><path style="opacity:1" fill="#28ea25" d="M 551.5,870.5 C 550.833,870.5 550.167,870.5 549.5,870.5C 544.343,869.789 539.01,869.789 533.5,870.5C 532.644,866.43 531.477,862.43 530,858.5C 529.184,857.177 528.017,856.511 526.5,856.5C 521.494,854.441 516.16,853.441 510.5,853.5C 510.5,854.5 510.5,855.5 510.5,856.5C 510.167,856.5 509.833,856.5 509.5,856.5C 508.249,854.275 508.582,852.109 510.5,850C 509.383,846.927 509.216,843.76 510,840.5C 511.562,838.043 512.562,835.376 513,832.5C 514.579,831.2 515.745,831.534 516.5,833.5C 515.5,837.5 514.5,841.5 513.5,845.5C 516.748,845.762 519.748,845.762 522.5,845.5C 523.5,845.5 524.5,845.5 525.5,845.5C 525.795,839.989 524.962,834.656 523,829.5C 521.89,827.963 520.39,827.297 518.5,827.5C 518.5,828.5 518.5,829.5 518.5,830.5C 518.167,830.5 517.833,830.5 517.5,830.5C 517.5,828.833 517.5,827.167 517.5,825.5C 521.147,825.622 523.981,827.288 526,830.5C 527.42,836.765 528.254,843.098 528.5,849.5C 525.113,850.018 521.779,850.851 518.5,852C 522.107,853.165 525.773,854.332 529.5,855.5C 532.27,859.04 533.936,863.04 534.5,867.5C 539.511,867.334 544.511,867.501 549.5,868C 550.381,868.708 551.047,869.542 551.5,870.5 Z"/></g>
<g><path style="opacity:0.83" fill="#004800" d="M 519.5,831.5 C 520.496,831.414 521.329,831.748 522,832.5C 522.96,835.633 523.793,838.8 524.5,842C 524.164,843.03 523.497,843.53 522.5,843.5C 520.898,839.761 519.898,835.761 519.5,831.5 Z"/></g>
<g><path style="opacity:0.751" fill="#7dff7c" d="M 718.5,843.5 C 726.525,850.186 734.859,856.519 743.5,862.5C 742.726,863.147 741.726,863.48 740.5,863.5C 735.539,862.041 731.539,859.208 728.5,855C 724.313,852.788 720.313,850.288 716.5,847.5C 715.571,846.311 715.238,844.978 715.5,843.5C 716.5,843.5 717.5,843.5 718.5,843.5 Z"/></g>
<g><path style="opacity:1" fill="#00b500" d="M 679.5,808.5 C 679.685,810.196 680.519,811.529 682,812.5C 683.957,831.745 685.457,851.079 686.5,870.5C 689.518,870.335 692.518,870.502 695.5,871C 696.056,871.383 696.389,871.883 696.5,872.5C 692.548,873.272 688.548,873.605 684.5,873.5C 683.886,856.135 682.72,838.801 681,821.5C 680.925,817.248 680.092,813.248 678.5,809.5C 678.5,808.833 678.833,808.5 679.5,808.5 Z"/></g>
<g><path style="opacity:0.82" fill="#008100" d="M 526.5,856.5 C 522.629,856.185 518.962,856.518 515.5,857.5C 513.883,856.962 512.216,856.629 510.5,856.5C 510.5,855.5 510.5,854.5 510.5,853.5C 516.16,853.441 521.494,854.441 526.5,856.5 Z"/></g>
<g><path style="opacity:1" fill="#00bf00" d="M 461.5,846.5 C 462.993,847.312 463.66,848.645 463.5,850.5C 463.635,856.729 460.968,859.062 455.5,857.5C 456.167,856.167 457.167,855.167 458.5,854.5C 459.496,854.586 460.329,854.252 461,853.5C 461.497,851.19 461.663,848.857 461.5,846.5 Z"/></g>
<g><path style="opacity:1" fill="#00b900" d="M 499.5,836.5 C 498.082,845.253 495.749,853.753 492.5,862C 492.645,863.226 492.978,864.393 493.5,865.5C 497.908,866.574 500.575,869.241 501.5,873.5C 500.508,873.672 499.842,873.338 499.5,872.5C 499.586,871.504 499.252,870.671 498.5,870C 495.982,868.498 493.482,866.998 491,865.5C 490.833,864.833 490.667,864.167 490.5,863.5C 493.303,856.021 495.47,848.354 497,840.5C 497.934,839.142 498.768,837.808 499.5,836.5 Z"/></g>
<g><path style="opacity:0.619" fill="#76ff76" d="M 582.5,845.5 C 582.5,853.5 582.5,861.5 582.5,869.5C 581.504,869.586 580.671,869.252 580,868.5C 579.333,861.167 579.333,853.833 580,846.5C 580.671,845.748 581.504,845.414 582.5,845.5 Z"/></g>
<g><path style="opacity:1" fill="#00cf00" d="M 739.5,866.5 C 732.82,869.722 726.153,872.056 719.5,873.5C 720.573,872.749 720.74,871.749 720,870.5C 715.798,866.633 711.965,862.467 708.5,858C 707.391,857.362 706.225,856.862 705,856.5C 703.97,856.836 703.47,857.503 703.5,858.5C 702.5,857.833 701.5,857.167 700.5,856.5C 699.659,854.621 699.325,852.621 699.5,850.5C 701.527,850.338 703.527,850.505 705.5,851C 710.479,856.311 715.813,861.311 721.5,866C 726.101,866.534 730.601,866.034 735,864.5C 737.008,864.307 738.508,864.974 739.5,866.5 Z"/></g>
<g><path style="opacity:0.819" fill="#004e00" d="M 515.5,857.5 C 518.962,856.518 522.629,856.185 526.5,856.5C 530.07,861.538 532.07,867.205 532.5,873.5C 530.876,875.137 529.876,874.803 529.5,872.5C 528.549,867.858 527.216,863.358 525.5,859C 522.146,858.545 518.813,858.045 515.5,857.5 Z"/></g>
<g><path style="opacity:0.815" fill="#005a00" d="M 650.5,866.5 C 650.674,868.861 651.007,871.194 651.5,873.5C 650.153,874.171 648.986,874.171 648,873.5C 647.035,868.464 645.535,863.63 643.5,859C 638.794,858.271 634.127,857.438 629.5,856.5C 630.514,855.235 632.014,854.569 634,854.5C 643.773,853.101 649.273,857.101 650.5,866.5 Z"/></g>
<g><path style="opacity:0.806" fill="#004d00" d="M 719.5,873.5 C 714.14,868.472 708.807,863.472 703.5,858.5C 703.47,857.503 703.97,856.836 705,856.5C 706.225,856.862 707.391,857.362 708.5,858C 711.965,862.467 715.798,866.633 720,870.5C 720.74,871.749 720.573,872.749 719.5,873.5 Z"/></g>
<g><path style="opacity:1" fill="#00db00" d="M 440.5,855.5 C 440.654,859.025 439.321,861.859 436.5,864C 447.523,869.276 458.856,869.776 470.5,865.5C 472.03,865.64 473.03,866.307 473.5,867.5C 470.397,869.384 467.063,870.718 463.5,871.5C 454.88,871.003 446.213,870.003 437.5,868.5C 435.212,865.544 432.212,863.877 428.5,863.5C 432.119,860.35 436.119,857.684 440.5,855.5 Z"/></g>
<g><path style="opacity:1" fill="#00a700" d="M 566.5,862.5 C 567.283,864.343 567.95,866.343 568.5,868.5C 571.447,869.321 574.447,869.821 577.5,870C 578.252,870.671 578.586,871.504 578.5,872.5C 574.548,873.272 570.548,873.605 566.5,873.5C 566.5,869.833 566.5,866.167 566.5,862.5 Z"/></g>
<g><path style="opacity:0.807" fill="#00ac00" d="M 650.5,866.5 C 651.713,867.575 653.213,868.241 655,868.5C 659.147,867.594 663.314,867.427 667.5,868C 668.942,868.377 669.942,869.21 670.5,870.5C 664.188,871.629 657.855,872.629 651.5,873.5C 651.007,871.194 650.674,868.861 650.5,866.5 Z"/></g>
<g><path style="opacity:1" fill="#009b00" d="M 437.5,868.5 C 446.213,870.003 454.88,871.003 463.5,871.5C 459.01,873.111 454.343,873.778 449.5,873.5C 446.1,871.915 442.433,870.748 438.5,870C 437.944,869.617 437.611,869.117 437.5,868.5 Z"/></g>
<g><path style="opacity:0.71" fill="#009800" d="M 526.5,856.5 C 528.017,856.511 529.184,857.177 530,858.5C 531.477,862.43 532.644,866.43 533.5,870.5C 539.01,869.789 544.343,869.789 549.5,870.5C 544.052,872.02 538.386,873.02 532.5,873.5C 532.07,867.205 530.07,861.538 526.5,856.5 Z"/></g>
<g><path style="opacity:0.573" fill="#006900" d="M 428.5,863.5 C 432.212,863.877 435.212,865.544 437.5,868.5C 437.611,869.117 437.944,869.617 438.5,870C 442.433,870.748 446.1,871.915 449.5,873.5C 440.558,874.623 433.058,871.957 427,865.5C 426.472,864.184 426.972,863.517 428.5,863.5 Z"/></g>
<g><path style="opacity:0.427" fill="#eef2f5" d="M 1198.5,-0.5 C 1198.83,-0.5 1199.17,-0.5 1199.5,-0.5C 1199.5,399.5 1199.5,799.5 1199.5,1199.5C 799.5,1199.5 399.5,1199.5 -0.5,1199.5C -0.5,1199.17 -0.5,1198.83 -0.5,1198.5C 399.167,1198.5 798.833,1198.5 1198.5,1198.5C 1198.5,798.833 1198.5,399.167 1198.5,-0.5 Z"/></g>
</svg>
