<?xml version="1.0" encoding="UTF-8"?>
<!DOCTYPE svg PUBLIC "-//W3C//DTD SVG 1.1//EN" "http://www.w3.org/Graphics/SVG/1.1/DTD/svg11.dtd">
<svg xmlns="http://www.w3.org/2000/svg" version="1.1" width="512px" height="512px" style="shape-rendering:geometricPrecision; text-rendering:geometricPrecision; image-rendering:optimizeQuality; fill-rule:evenodd; clip-rule:evenodd" xmlns:xlink="http://www.w3.org/1999/xlink">
<g><path style="opacity:0.947" fill="#4500a8" d="M 193.5,41.5 C 238.777,40.2977 268.443,61.131 282.5,104C 306.498,104.5 330.498,104.667 354.5,104.5C 354.649,105.552 354.483,106.552 354,107.5C 345.475,117.023 336.642,126.19 327.5,135C 312.5,135.333 297.5,135.667 282.5,136C 268.882,181.591 238.215,202.924 190.5,200C 153.262,192.363 131.095,169.863 124,132.5C 120.606,93.778 136.106,65.6113 170.5,48C 178.071,45.0278 185.738,42.8611 193.5,41.5 Z M 197.5,56.5 C 228.234,56.0872 250.068,69.7538 263,97.5C 272.427,126.551 265.594,151.051 242.5,171C 209.519,191.765 179.686,187.931 153,159.5C 133.978,130.817 135.311,103.15 157,76.5C 168.521,65.6555 182.021,58.9888 197.5,56.5 Z"/></g>
<g><path style="opacity:0.952" fill="#222322" d="M 200.5,66.5 C 213.984,66.8178 221.651,73.6512 223.5,87C 221.931,99.4027 214.931,106.236 202.5,107.5C 190.167,106.5 183.5,99.8333 182.5,87.5C 183.566,76.111 189.566,69.111 200.5,66.5 Z"/></g>
<g><path style="opacity:0.948" fill="#4500a8" d="M 413.5,73.5 C 414.239,73.369 414.906,73.5357 415.5,74C 390.208,113.415 365.042,152.915 340,192.5C 338.5,194 337,195.5 335.5,197C 328.809,197.169 322.142,197.669 315.5,198.5C 314.141,200.306 314.475,201.806 316.5,203C 335.167,203.333 353.833,203.667 372.5,204C 373.769,206.139 373.769,208.305 372.5,210.5C 357.545,211.318 342.545,211.818 327.5,212C 325.623,214.251 324.123,216.751 323,219.5C 321.421,221.041 319.587,222.208 317.5,223C 309.812,223.169 302.145,223.669 294.5,224.5C 293.289,225.72 293.289,226.887 294.5,228C 319.167,228.333 343.833,228.667 368.5,229C 370.278,231.135 370.945,233.635 370.5,236.5C 351.497,236.333 332.497,236.5 313.5,237C 310.087,238.269 307.921,240.769 307,244.5C 303.911,247.81 300.078,249.476 295.5,249.5C 287.851,248.475 280.185,248.308 272.5,249C 270.342,250.312 270.009,251.978 271.5,254C 302.167,254.333 332.833,254.667 363.5,255C 364.833,257.333 364.833,259.667 363.5,262C 340.833,262.333 318.167,262.667 295.5,263C 293.137,265.011 291.304,267.511 290,270.5C 288.421,272.041 286.587,273.208 284.5,274C 273.833,274.333 263.167,274.667 252.5,275C 251.167,276.333 251.167,277.667 252.5,279C 287.833,279.333 323.167,279.667 358.5,280C 359.435,282.381 359.768,284.881 359.5,287.5C 333.165,287.333 306.831,287.5 280.5,288C 279.167,288.667 277.833,289.333 276.5,290C 263.828,309.355 249.661,310.522 234,293.5C 203.353,258.019 172.52,222.685 141.5,187.5C 141.833,187.167 142.167,186.833 142.5,186.5C 178.116,204.308 213.45,222.641 248.5,241.5C 253.446,238.057 257.946,234.057 262,229.5C 312.031,176.97 362.531,124.97 413.5,73.5 Z"/></g>
<g><path style="opacity:0.952" fill="#222322" d="M 190.5,114.5 C 194.601,114.43 197.101,116.43 198,120.5C 197.747,131.825 197.747,143.159 198,154.5C 200.592,159.15 203.592,159.483 207,155.5C 207.037,142.405 207.704,129.405 209,116.5C 212.006,114.034 215.173,113.867 218.5,116C 228.045,120.205 233.878,127.372 236,137.5C 236.667,146.5 236.667,155.5 236,164.5C 235.535,165.931 234.701,167.097 233.5,168C 218.092,176.869 201.759,178.869 184.5,174C 179.468,172.402 174.968,169.902 171,166.5C 169.88,161.107 169.38,155.607 169.5,150C 167.406,132.675 174.406,120.842 190.5,114.5 Z"/></g>
<g><path style="opacity:0.966" fill="#222322" d="M 143.5,200.5 C 154.786,210.622 165.286,221.622 175,233.5C 173.222,248.899 170.722,264.232 167.5,279.5C 167.608,280.442 167.941,281.275 168.5,282C 184.488,281.556 200.488,281.556 216.5,282C 225.5,291 234.5,300 243.5,309C 280.834,309.621 318.167,310.287 355.5,311C 356.591,313.064 356.758,315.231 356,317.5C 284.904,318.665 213.737,318.831 142.5,318C 134.068,316.462 129.401,311.462 128.5,303C 133.273,268.753 138.273,234.586 143.5,200.5 Z"/></g>
<g><path style="opacity:0.893" fill="#000000" d="M 115.5,352.5 C 123.087,351.542 130.087,353.042 136.5,357C 137.687,358.019 138.687,359.186 139.5,360.5C 137.798,363.037 135.631,365.037 133,366.5C 124.742,359.65 116.742,359.984 109,367.5C 102.658,381.151 106.825,389.817 121.5,393.5C 125.989,393.256 129.655,391.422 132.5,388C 136.003,388.293 138.669,390.126 140.5,393.5C 134.202,400.914 126.202,403.748 116.5,402C 101.301,397.443 94.8014,387.277 97,371.5C 99.3481,361.32 105.515,354.987 115.5,352.5 Z"/></g>
<g><path style="opacity:0.861" fill="#000000" d="M 288.5,352.5 C 294.356,352.854 296.523,355.854 295,361.5C 292.833,364.287 289.999,365.12 286.5,364C 282.416,359.402 283.083,355.569 288.5,352.5 Z"/></g>
<g><path style="opacity:0.902" fill="#000000" d="M 143.5,353.5 C 147.106,353.211 150.606,353.544 154,354.5C 157.67,365.511 161.337,376.511 165,387.5C 168.534,376.398 172.367,365.398 176.5,354.5C 180.122,353.341 183.789,353.175 187.5,354C 181.335,369.662 175.668,385.495 170.5,401.5C 166.833,401.5 163.167,401.5 159.5,401.5C 153.969,385.574 148.636,369.574 143.5,353.5 Z"/></g>
<g><path style="opacity:0.908" fill="#000000" d="M 206.5,353.5 C 214.507,353.334 222.507,353.5 230.5,354C 239.527,358.09 242.027,364.59 238,373.5C 237.097,374.701 235.931,375.535 234.5,376C 241.926,381.42 243.426,388.254 239,396.5C 237.167,397.667 235.333,398.833 233.5,400C 224.582,401.414 215.582,401.914 206.5,401.5C 206.5,385.5 206.5,369.5 206.5,353.5 Z M 216.5,362.5 C 220.514,362.334 224.514,362.501 228.5,363C 231.405,366.374 231.072,369.374 227.5,372C 223.848,372.499 220.182,372.665 216.5,372.5C 216.5,369.167 216.5,365.833 216.5,362.5 Z M 216.5,381.5 C 220.846,381.334 225.179,381.501 229.5,382C 233.404,385.598 233.07,388.931 228.5,392C 224.514,392.499 220.514,392.666 216.5,392.5C 216.5,388.833 216.5,385.167 216.5,381.5 Z"/></g>
<g><path style="opacity:0.93" fill="#000000" d="M 301.5,353.5 C 304.5,353.5 307.5,353.5 310.5,353.5C 310.5,369.5 310.5,385.5 310.5,401.5C 307.5,401.5 304.5,401.5 301.5,401.5C 301.5,385.5 301.5,369.5 301.5,353.5 Z"/></g>
<g><path style="opacity:0.891" fill="#000000" d="M 340.5,353.5 C 343.833,353.5 347.167,353.5 350.5,353.5C 350.5,369.5 350.5,385.5 350.5,401.5C 347.5,401.5 344.5,401.5 341.5,401.5C 341.649,400.448 341.483,399.448 341,398.5C 333.144,404.186 325.81,403.519 319,396.5C 313.43,386.674 314.597,377.84 322.5,370C 329.114,366.246 335.28,366.746 341,371.5C 340.591,365.586 340.425,359.586 340.5,353.5 Z M 329.5,376.5 C 338.112,375.28 341.945,378.946 341,387.5C 336.909,394.681 331.909,395.348 326,389.5C 323.991,384.355 325.157,380.021 329.5,376.5 Z"/></g>
<g><path style="opacity:0.882" fill="#000000" d="M 366.5,367.5 C 381.788,365.471 389.122,372.138 388.5,387.5C 380.472,387.169 372.472,387.502 364.5,388.5C 367.167,393.19 371.167,394.69 376.5,393C 380.22,388.603 383.886,388.77 387.5,393.5C 381.132,402.671 372.799,404.838 362.5,400C 353.387,391.872 352.22,382.705 359,372.5C 361.479,370.686 363.979,369.019 366.5,367.5 Z M 368.5,375.5 C 373.315,374.52 376.982,376.02 379.5,380C 374.5,380.667 369.5,380.667 364.5,380C 365.357,377.981 366.691,376.481 368.5,375.5 Z"/></g>
<g><path style="opacity:0.905" fill="#000000" d="M 407.5,367.5 C 416.825,366.111 418.992,369.444 414,377.5C 408.618,375.357 404.952,377.024 403,382.5C 402.5,388.825 402.334,395.158 402.5,401.5C 399.5,401.5 396.5,401.5 393.5,401.5C 393.5,390.5 393.5,379.5 393.5,368.5C 396.5,368.5 399.5,368.5 402.5,368.5C 402.351,369.552 402.517,370.552 403,371.5C 404.397,369.93 405.897,368.596 407.5,367.5 Z"/></g>
<g><path style="opacity:0.892" fill="#000000" d="M 246.5,368.5 C 249.5,368.5 252.5,368.5 255.5,368.5C 255.144,376.238 255.644,383.905 257,391.5C 261.767,394.758 265.434,393.758 268,388.5C 268.5,381.842 268.666,375.175 268.5,368.5C 271.833,368.5 275.167,368.5 278.5,368.5C 278.5,379.5 278.5,390.5 278.5,401.5C 275.5,401.5 272.5,401.5 269.5,401.5C 269.633,396.728 268.3,396.562 265.5,401C 256.761,404.319 250.594,401.819 247,393.5C 246.5,385.173 246.334,376.84 246.5,368.5 Z"/></g>
<g><path style="opacity:0.923" fill="#000000" d="M 285.5,368.5 C 288.5,368.5 291.5,368.5 294.5,368.5C 294.5,379.5 294.5,390.5 294.5,401.5C 291.5,401.5 288.5,401.5 285.5,401.5C 285.5,390.5 285.5,379.5 285.5,368.5 Z"/></g>
<g><path style="opacity:0.89" fill="#000000" d="M 89.5,413.5 C 95.0606,412.802 100.227,413.802 105,416.5C 105.707,418.081 106.54,419.581 107.5,421C 105.083,422.626 102.583,424.126 100,425.5C 98.9705,422.125 96.8039,420.958 93.5,422C 91.7888,423.133 91.2888,424.633 92,426.5C 97,432.833 102,439.167 107,445.5C 107.782,442.924 109.282,440.924 111.5,439.5C 113.71,440.766 115.71,442.266 117.5,444C 116.09,446.818 114.423,449.485 112.5,452C 114.405,453.815 116.072,455.815 117.5,458C 115.241,459.715 113.074,461.548 111,463.5C 109.667,462.167 108.333,460.833 107,459.5C 99.6363,464.632 92.1363,464.799 84.5,460C 78.8327,454.681 76.9993,448.181 79,440.5C 80.4548,437.387 82.2882,434.554 84.5,432C 80.8063,424.311 82.4729,418.145 89.5,413.5 Z M 89.5,439.5 C 93.7816,442.951 97.6149,446.951 101,451.5C 101.688,452.332 101.521,452.998 100.5,453.5C 88.7128,455.266 85.0461,450.6 89.5,439.5 Z"/></g>
<g><path style="opacity:0.89" fill="#000000" d="M 152.5,414.5 C 155.833,414.5 159.167,414.5 162.5,414.5C 162.925,427.894 162.425,441.227 161,454.5C 153.695,464.468 144.862,465.968 134.5,459C 132.751,456.914 131.417,454.581 130.5,452C 132.832,450.043 135.499,448.543 138.5,447.5C 141.868,454.031 146.368,455.031 152,450.5C 152.5,438.505 152.667,426.505 152.5,414.5 Z"/></g>
<g><path style="opacity:0.923" fill="#000000" d="M 206.5,414.5 C 209.5,414.5 212.5,414.5 215.5,414.5C 215.334,420.176 215.501,425.843 216,431.5C 221.982,427.672 228.149,427.505 234.5,431C 240.622,437.826 242.122,445.66 239,454.5C 234.045,462.152 227.212,464.652 218.5,462C 215.7,457.562 214.367,457.728 214.5,462.5C 211.833,462.5 209.167,462.5 206.5,462.5C 206.5,446.5 206.5,430.5 206.5,414.5 Z M 222.5,436.5 C 230.52,438.206 233.02,442.872 230,450.5C 226.861,454.577 223.028,455.41 218.5,453C 212.966,445.776 214.3,440.276 222.5,436.5 Z"/></g>
<g><path style="opacity:0.947" fill="#000000" d="M 261.5,414.5 C 269.174,414.334 276.841,414.5 284.5,415C 292.871,418.909 296.037,425.409 294,434.5C 288.952,443.896 281.118,447.23 270.5,444.5C 270.5,450.5 270.5,456.5 270.5,462.5C 267.5,462.5 264.5,462.5 261.5,462.5C 261.5,446.5 261.5,430.5 261.5,414.5 Z M 270.5,423.5 C 274.182,423.335 277.848,423.501 281.5,424C 285.5,427.667 285.5,431.333 281.5,435C 277.848,435.499 274.182,435.665 270.5,435.5C 270.5,431.5 270.5,427.5 270.5,423.5 Z"/></g>
<g><path style="opacity:0.929" fill="#000000" d="M 422.5,414.5 C 425.5,414.5 428.5,414.5 431.5,414.5C 431.5,430.5 431.5,446.5 431.5,462.5C 428.5,462.5 425.5,462.5 422.5,462.5C 422.5,446.5 422.5,430.5 422.5,414.5 Z"/></g>
<g><path style="opacity:0.894" fill="#000000" d="M 364.5,419.5 C 367.833,419.5 371.167,419.5 374.5,419.5C 374.5,422.833 374.5,426.167 374.5,429.5C 377.167,429.5 379.833,429.5 382.5,429.5C 382.5,432.167 382.5,434.833 382.5,437.5C 379.833,437.5 377.167,437.5 374.5,437.5C 374.334,442.511 374.501,447.511 375,452.5C 376.808,454.558 378.975,454.892 381.5,453.5C 381.756,455.937 382.423,458.271 383.5,460.5C 378.754,464.265 373.754,464.432 368.5,461C 366.396,458.958 365.229,456.458 365,453.5C 364.501,448.177 364.334,442.844 364.5,437.5C 362.833,437.5 361.167,437.5 359.5,437.5C 359.5,434.833 359.5,432.167 359.5,429.5C 361.167,429.5 362.833,429.5 364.5,429.5C 364.5,426.167 364.5,422.833 364.5,419.5 Z"/></g>
<g><path style="opacity:0.904" fill="#000000" d="M 177.5,428.5 C 197.55,427.375 204.716,436.375 199,455.5C 192.201,463.241 184.035,465.074 174.5,461C 166.656,454.779 164.489,446.946 168,437.5C 170.406,433.592 173.572,430.592 177.5,428.5 Z M 182.5,436.5 C 190.701,437.901 193.534,442.568 191,450.5C 183.691,456.701 178.525,455.201 175.5,446C 176.048,441.362 178.382,438.195 182.5,436.5 Z"/></g>
<g><path style="opacity:0.893" fill="#000000" d="M 306.5,428.5 C 324.596,426.759 332.096,434.759 329,452.5C 323.838,462.09 316.004,465.256 305.5,462C 298.475,458.793 294.808,453.293 294.5,445.5C 295.351,437.42 299.351,431.753 306.5,428.5 Z M 311.5,436.5 C 320.029,438.56 322.362,443.56 318.5,451.5C 314.5,455.5 310.5,455.5 306.5,451.5C 302.807,444.579 304.474,439.579 311.5,436.5 Z"/></g>
<g><path style="opacity:0.929" fill="#000000" d="M 348.5,428.5 C 350.833,428.5 353.167,428.5 355.5,428.5C 355.665,431.85 355.498,435.183 355,438.5C 350.123,436.481 346.457,437.814 344,442.5C 343.5,449.158 343.334,455.825 343.5,462.5C 340.5,462.5 337.5,462.5 334.5,462.5C 334.5,451.5 334.5,440.5 334.5,429.5C 337.167,429.5 339.833,429.5 342.5,429.5C 342.343,430.873 342.51,432.207 343,433.5C 344.352,431.251 346.185,429.584 348.5,428.5 Z"/></g>
<g><path style="opacity:0.888" fill="#000000" d="M 394.5,428.5 C 398.846,428.334 403.179,428.501 407.5,429C 412.099,430.598 414.932,433.765 416,438.5C 416.5,446.493 416.666,454.493 416.5,462.5C 413.5,462.5 410.5,462.5 407.5,462.5C 407.657,461.127 407.49,459.793 407,458.5C 402.741,463.486 397.574,464.653 391.5,462C 385.891,458.723 384.058,453.89 386,447.5C 387.563,444.272 390.063,442.105 393.5,441C 397.558,440.233 401.558,440.4 405.5,441.5C 406.754,439.741 406.421,438.241 404.5,437C 400.124,435.389 396.124,436.223 392.5,439.5C 389.265,438.448 387.431,436.448 387,433.5C 389.17,431.177 391.67,429.51 394.5,428.5 Z M 397.5,447.5 C 400.249,447.274 402.916,447.607 405.5,448.5C 406.624,452.863 404.79,455.197 400,455.5C 393.795,454.387 392.961,451.72 397.5,447.5 Z"/></g>
</svg>
